<?xml version="1.0" standalone="no"?>
 <!DOCTYPE svg PUBLIC "-//W3C//DTD SVG 1.1//EN" 
 "http://www.w3.org/Graphics/SVG/1.1/DTD/svg11.dtd"> 
<svg
  xmlns:svg="http://www.w3.org/2000/svg"
  xmlns="http://www.w3.org/2000/svg"
  xmlns:xlink="http://www.w3.org/1999/xlink"
  version="1.1"
  width="29.700220cm" height="21.000720cm" viewBox="0 0 116930 82680">
<title>SVG Picture created as Relay.svg date 2022/09/02 00:00:09 </title>
  <desc>Picture generated by Eeschema-SVG </desc>
<g style="fill:#000000; fill-opacity:1.000000;stroke:#000000; stroke-opacity:1.000000;
stroke-linecap:round; stroke-linejoin:round;"
 transform="translate(0 0) scale(1 1)">
</g>
<g style="fill:#000000; fill-opacity:0.0; 
stroke:#000000; stroke-width:60.000000; stroke-opacity:1; 
stroke-linecap:round; stroke-linejoin:round;">
<g >
</g>
<g style="fill:#840000; fill-opacity:0.0; 
stroke:#840000; stroke-width:60.000000; stroke-opacity:1; 
stroke-linecap:round; stroke-linejoin:round;">
</g>
<g style="fill:#840000; fill-opacity:0.0; 
stroke:#840000; stroke-width:100.000000; stroke-opacity:1; 
stroke-linecap:round; stroke-linejoin:round;">
<rect x="34000.000000" y="24100.000000" width="2000.000000" height="800.000000" rx="0.000000" />
</g>
<g style="fill:#840000; fill-opacity:0.0; 
stroke:#840000; stroke-width:60.000000; stroke-opacity:1; 
stroke-linecap:round; stroke-linejoin:round;">
<path d="M36000 24500
L36500 24500
" />
<path d="M34000 24500
L33500 24500
" />
</g>
<g style="fill:#006464; fill-opacity:0.0; 
stroke:#006464; stroke-width:60.000000; stroke-opacity:1; 
stroke-linecap:round; stroke-linejoin:round;">
<text x="37000.000000" y="24249.960630"
textLength="1038.700787" font-size="666.653543" lengthAdjust="spacingAndGlyphs"
text-anchor="middle" opacity="0">R2</text>
<g class="stroked-text"><desc>R2</desc>
<path d="M36916 24226
L36750 23988
" />
<path d="M36630 24226
L36630 23726
L36821 23726
L36869 23749
L36892 23773
L36916 23821
L36916 23892
L36892 23940
L36869 23964
L36821 23988
L36630 23988
" />
<path d="M37107 23773
L37130 23749
L37178 23726
L37297 23726
L37345 23749
L37369 23773
L37392 23821
L37392 23868
L37369 23940
L37083 24226
L37392 24226
" />
</g><text x="37000.000000" y="25249.960630"
textLength="1417.125984" font-size="666.653543" lengthAdjust="spacingAndGlyphs"
text-anchor="middle" opacity="0">15k</text>
<g class="stroked-text"><desc>15k</desc>
<path d="M36702 25226
L36416 25226
" />
<path d="M36559 25226
L36559 24726
L36511 24797
L36464 24845
L36416 24868
" />
<path d="M37154 24726
L36916 24726
L36892 24964
L36916 24940
L36964 24916
L37083 24916
L37130 24940
L37154 24964
L37178 25011
L37178 25130
L37154 25178
L37130 25202
L37083 25226
L36964 25226
L36916 25202
L36892 25178
" />
<path d="M37392 25226
L37392 24726
" />
<path d="M37440 25035
L37583 25226
" />
<path d="M37583 24892
L37392 25083
" />
</g></g>
</g>
<g style="fill:#006464; fill-opacity:0.0; 
stroke:#006464; stroke-width:60.000000; stroke-opacity:1; 
stroke-linecap:round; stroke-linejoin:round;">
<g >
</g>
<g style="fill:#840000; fill-opacity:0.0; 
stroke:#840000; stroke-width:60.000000; stroke-opacity:1; 
stroke-linecap:round; stroke-linejoin:round;">
</g>
<g style="fill:#840000; fill-opacity:0.0; 
stroke:#840000; stroke-width:100.000000; stroke-opacity:1; 
stroke-linecap:round; stroke-linejoin:round;">
<rect x="34000.000000" y="22100.000000" width="2000.000000" height="800.000000" rx="0.000000" />
</g>
<g style="fill:#840000; fill-opacity:0.0; 
stroke:#840000; stroke-width:60.000000; stroke-opacity:1; 
stroke-linecap:round; stroke-linejoin:round;">
<path d="M36000 22500
L36500 22500
" />
<path d="M34000 22500
L33500 22500
" />
</g>
<g style="fill:#006464; fill-opacity:0.0; 
stroke:#006464; stroke-width:60.000000; stroke-opacity:1; 
stroke-linecap:round; stroke-linejoin:round;">
<text x="37000.000000" y="22249.960630"
textLength="1036.181102" font-size="666.653543" lengthAdjust="spacingAndGlyphs"
text-anchor="middle" opacity="0">R1</text>
<g class="stroked-text"><desc>R1</desc>
<path d="M36916 22226
L36750 21988
" />
<path d="M36630 22226
L36630 21726
L36821 21726
L36869 21749
L36892 21773
L36916 21821
L36916 21892
L36892 21940
L36869 21964
L36821 21988
L36630 21988
" />
<path d="M37392 22226
L37107 22226
" />
<path d="M37250 22226
L37250 21726
L37202 21797
L37154 21845
L37107 21868
" />
</g><text x="37000.000000" y="23249.960630"
textLength="1417.125984" font-size="666.653543" lengthAdjust="spacingAndGlyphs"
text-anchor="middle" opacity="0">39k</text>
<g class="stroked-text"><desc>39k</desc>
<path d="M36392 22726
L36702 22726
L36535 22916
L36607 22916
L36654 22940
L36678 22964
L36702 23011
L36702 23130
L36678 23178
L36654 23202
L36607 23226
L36464 23226
L36416 23202
L36392 23178
" />
<path d="M36940 23226
L37035 23226
L37083 23202
L37107 23178
L37154 23107
L37178 23011
L37178 22821
L37154 22773
L37130 22749
L37083 22726
L36988 22726
L36940 22749
L36916 22773
L36892 22821
L36892 22940
L36916 22988
L36940 23011
L36988 23035
L37083 23035
L37130 23011
L37154 22988
L37178 22940
" />
<path d="M37392 23226
L37392 22726
" />
<path d="M37440 23035
L37583 23226
" />
<path d="M37583 22892
L37392 23083
" />
</g></g>
</g>
<g style="fill:#006464; fill-opacity:0.0; 
stroke:#006464; stroke-width:60.000000; stroke-opacity:1; 
stroke-linecap:round; stroke-linejoin:round;">
<g >
</g>
<g style="fill:#840000; fill-opacity:0.0; 
stroke:#840000; stroke-width:60.000000; stroke-opacity:1; 
stroke-linecap:round; stroke-linejoin:round;">
</g>
<g style="fill:#FFFFC2; fill-opacity:0.0; 
stroke:#FFFFC2; stroke-width:60.000000; stroke-opacity:1; 
stroke-linecap:round; stroke-linejoin:round;">
</g>
<g style="fill:#FFFFC2; fill-opacity:0.6; 
stroke:#FFFFC2; stroke-width:0.039370; stroke-opacity:1; 
stroke-linecap:round; stroke-linejoin:round;">
<rect x="28500.000000" y="17500.000000" width="4000.000000" height="12000.000000" rx="0.000000" />
</g>
<g style="fill:#840000; fill-opacity:0.6; 
stroke:#840000; stroke-width:0.039370; stroke-opacity:1; 
stroke-linecap:round; stroke-linejoin:round;">
</g>
<g style="fill:#840000; fill-opacity:0.0; 
stroke:#840000; stroke-width:100.000000; stroke-opacity:1; 
stroke-linecap:round; stroke-linejoin:round;">
<rect x="28500.000000" y="17500.000000" width="4000.000000" height="12000.000000" rx="0.000000" />
<rect x="28500.000000" y="17500.000000" width="4000.000000" height="12000.000000" rx="0.000000" />
<rect x="29750.000000" y="26250.000000" width="1500.000000" height="2500.000000" rx="0.000000" />
<path style="fill:#840000; fill-opacity:0.0; 
stroke:#840000; stroke-width:100.000000; stroke-opacity:1; 
stroke-linecap:round; stroke-linejoin:round;fill:none"
d="M 29750.000000,28500.000000
31250.000000,26500.000000
" /> 
</g>
<g style="fill:#840000; fill-opacity:0.0; 
stroke:#840000; stroke-width:60.000000; stroke-opacity:1; 
stroke-linecap:round; stroke-linejoin:round;">
<path style="fill:#840000; fill-opacity:0.0; 
stroke:#840000; stroke-width:60.000000; stroke-opacity:1; 
stroke-linecap:round; stroke-linejoin:round;fill:none"
d="M 28500.000000,27500.000000
29750.000000,27500.000000
" /> 
<path style="fill:#840000; fill-opacity:0.0; 
stroke:#840000; stroke-width:60.000000; stroke-opacity:1; 
stroke-linecap:round; stroke-linejoin:round;fill:none"
d="M 32500.000000,27500.000000
31250.000000,27500.000000
" /> 
</g>
<g style="fill:#840000; fill-opacity:0.0; 
stroke:#840000; stroke-width:100.000000; stroke-opacity:1; 
stroke-linecap:round; stroke-linejoin:round;">
<path style="fill:#840000; fill-opacity:0.0; 
stroke:#840000; stroke-width:100.000000; stroke-opacity:1; 
stroke-linecap:round; stroke-linejoin:round;fill:none"
d="M 30500.000000,26250.000000
30500.000000,26000.000000
" /> 
<path style="fill:#840000; fill-opacity:0.0; 
stroke:#840000; stroke-width:100.000000; stroke-opacity:1; 
stroke-linecap:round; stroke-linejoin:round;fill:none"
d="M 30500.000000,25750.000000
30500.000000,25500.000000
" /> 
<path style="fill:#840000; fill-opacity:0.0; 
stroke:#840000; stroke-width:100.000000; stroke-opacity:1; 
stroke-linecap:round; stroke-linejoin:round;fill:none"
d="M 30500.000000,25250.000000
30500.000000,25000.000000
" /> 
<path style="fill:#840000; fill-opacity:0.0; 
stroke:#840000; stroke-width:100.000000; stroke-opacity:1; 
stroke-linecap:round; stroke-linejoin:round;fill:none"
d="M 30500.000000,24750.000000
30500.000000,24500.000000
" /> 
<path style="fill:#840000; fill-opacity:0.0; 
stroke:#840000; stroke-width:100.000000; stroke-opacity:1; 
stroke-linecap:round; stroke-linejoin:round;fill:none"
d="M 30500.000000,24250.000000
30500.000000,24000.000000
" /> 
<path style="fill:#840000; fill-opacity:0.0; 
stroke:#840000; stroke-width:100.000000; stroke-opacity:1; 
stroke-linecap:round; stroke-linejoin:round;fill:none"
d="M 30500.000000,23750.000000
30500.000000,23500.000000
" /> 
</g>
<g style="fill:#840000; fill-opacity:0.0; 
stroke:#840000; stroke-width:200.000000; stroke-opacity:1; 
stroke-linecap:round; stroke-linejoin:round;">
<path style="fill:#840000; fill-opacity:0.0; 
stroke:#840000; stroke-width:200.000000; stroke-opacity:1; 
stroke-linecap:round; stroke-linejoin:round;fill:none"
d="M 29500.000000,23500.000000
32000.000000,24250.000000
" /> 
</g>
<g style="fill:#840000; fill-opacity:0.0; 
stroke:#840000; stroke-width:60.000000; stroke-opacity:1; 
stroke-linecap:round; stroke-linejoin:round;">
<path style="fill:#840000; fill-opacity:0.0; 
stroke:#840000; stroke-width:60.000000; stroke-opacity:1; 
stroke-linecap:round; stroke-linejoin:round;fill:none"
d="M 29500.000000,23500.000000
28500.000000,23500.000000
" /> 
</g>
<g style="fill:#840000; fill-opacity:0.0; 
stroke:#840000; stroke-width:100.000000; stroke-opacity:1; 
stroke-linecap:round; stroke-linejoin:round;">
<path style="fill:#840000; fill-opacity:0.0; 
stroke:#840000; stroke-width:100.000000; stroke-opacity:1; 
stroke-linecap:round; stroke-linejoin:round;fill:none"
d="M 30500.000000,23250.000000
30500.000000,23000.000000
" /> 
<path style="fill:#840000; fill-opacity:0.0; 
stroke:#840000; stroke-width:100.000000; stroke-opacity:1; 
stroke-linecap:round; stroke-linejoin:round;fill:none"
d="M 30500.000000,22750.000000
30500.000000,22500.000000
" /> 
<path style="fill:#840000; fill-opacity:0.0; 
stroke:#840000; stroke-width:100.000000; stroke-opacity:1; 
stroke-linecap:round; stroke-linejoin:round;fill:none"
d="M 30500.000000,22250.000000
30500.000000,22000.000000
" /> 
<path style="fill:#840000; fill-opacity:0.0; 
stroke:#840000; stroke-width:100.000000; stroke-opacity:1; 
stroke-linecap:round; stroke-linejoin:round;fill:none"
d="M 30500.000000,21750.000000
30500.000000,21500.000000
" /> 
<path style="fill:#840000; fill-opacity:0.0; 
stroke:#840000; stroke-width:100.000000; stroke-opacity:1; 
stroke-linecap:round; stroke-linejoin:round;fill:none"
d="M 30500.000000,21250.000000
30500.000000,21000.000000
" /> 
<path style="fill:#840000; fill-opacity:0.0; 
stroke:#840000; stroke-width:100.000000; stroke-opacity:1; 
stroke-linecap:round; stroke-linejoin:round;fill:none"
d="M 30500.000000,20750.000000
30500.000000,20500.000000
" /> 
<path style="fill:#840000; fill-opacity:0.0; 
stroke:#840000; stroke-width:100.000000; stroke-opacity:1; 
stroke-linecap:round; stroke-linejoin:round;fill:none"
d="M 30500.000000,20250.000000
30500.000000,20000.000000
" /> 
</g>
<g style="fill:#840000; fill-opacity:0.0; 
stroke:#840000; stroke-width:200.000000; stroke-opacity:1; 
stroke-linecap:round; stroke-linejoin:round;">
<path style="fill:#840000; fill-opacity:0.0; 
stroke:#840000; stroke-width:200.000000; stroke-opacity:1; 
stroke-linecap:round; stroke-linejoin:round;fill:none"
d="M 29500.000000,19500.000000
32000.000000,20250.000000
" /> 
</g>
<g style="fill:#840000; fill-opacity:0.0; 
stroke:#840000; stroke-width:60.000000; stroke-opacity:1; 
stroke-linecap:round; stroke-linejoin:round;">
<path style="fill:#840000; fill-opacity:0.0; 
stroke:#840000; stroke-width:60.000000; stroke-opacity:1; 
stroke-linecap:round; stroke-linejoin:round;fill:none"
d="M 29500.000000,19500.000000
28500.000000,19500.000000
" /> 
</g>
<g style="fill:#840000; fill-opacity:1.0; 
stroke:#840000; stroke-width:60.000000; stroke-opacity:1; 
stroke-linecap:round; stroke-linejoin:round;">
<path style="fill:#840000; fill-opacity:1.0; 
stroke:#840000; stroke-width:60.000000; stroke-opacity:1; 
stroke-linecap:round; stroke-linejoin:round;fill-rule:evenodd;"
d="M 32500.000000,24500.000000
31500.000000,24500.000000
31750.000000,24250.000000
32000.000000,24500.000000
" /> 
</g>
<g style="fill:#840000; fill-opacity:0.0; 
stroke:#840000; stroke-width:60.000000; stroke-opacity:1; 
stroke-linecap:round; stroke-linejoin:round;">
<path style="fill:#840000; fill-opacity:0.0; 
stroke:#840000; stroke-width:60.000000; stroke-opacity:1; 
stroke-linecap:round; stroke-linejoin:round;fill:none"
d="M 32500.000000,22500.000000
31500.000000,22500.000000
31750.000000,22750.000000
32000.000000,22500.000000
" /> 
</g>
<g style="fill:#840000; fill-opacity:1.0; 
stroke:#840000; stroke-width:60.000000; stroke-opacity:1; 
stroke-linecap:round; stroke-linejoin:round;">
<path style="fill:#840000; fill-opacity:1.0; 
stroke:#840000; stroke-width:60.000000; stroke-opacity:1; 
stroke-linecap:round; stroke-linejoin:round;fill-rule:evenodd;"
d="M 32500.000000,20500.000000
31500.000000,20500.000000
31750.000000,20250.000000
32000.000000,20500.000000
" /> 
</g>
<g style="fill:#840000; fill-opacity:0.0; 
stroke:#840000; stroke-width:60.000000; stroke-opacity:1; 
stroke-linecap:round; stroke-linejoin:round;">
<path style="fill:#840000; fill-opacity:0.0; 
stroke:#840000; stroke-width:60.000000; stroke-opacity:1; 
stroke-linecap:round; stroke-linejoin:round;fill:none"
d="M 32500.000000,18500.000000
31500.000000,18500.000000
31750.000000,18750.000000
32000.000000,18500.000000
" /> 
</g>
<g style="fill:#840000; fill-opacity:0.0; 
stroke:#840000; stroke-width:62.519685; stroke-opacity:1; 
stroke-linecap:round; stroke-linejoin:round;">
<g transform="rotate(-90.000000 31650.000000 27150.000000)">
<text x="31650.000000" y="27400.000000"
textLength="679.055118" font-size="666.653543" lengthAdjust="spacingAndGlyphs"
text-anchor="middle" opacity="0">+</text>
</g>
<g class="stroked-text"><desc>+</desc>
<path d="M31685 27340
L31685 26959
" />
<path d="M31876 27150
L31495 27150
" />
</g></g>
<g style="fill:#840000; fill-opacity:0.0; 
stroke:#840000; stroke-width:60.000000; stroke-opacity:1; 
stroke-linecap:round; stroke-linejoin:round;">
<path d="M32500 27500
L33500 27500
" />
</g>
<g style="fill:#A90000; fill-opacity:0.0; 
stroke:#A90000; stroke-width:60.000000; stroke-opacity:1; 
stroke-linecap:round; stroke-linejoin:round;">
<text x="33000.000000" y="27400.000000"
textLength="538.700787" font-size="666.653543" lengthAdjust="spacingAndGlyphs"
text-anchor="middle" opacity="0">1</text>
<g class="stroked-text"><desc>1</desc>
<path d="M33142 27376
L32857 27376
" />
<path d="M33000 27376
L33000 26876
L32952 26947
L32904 26995
L32857 27019
" />
</g></g>
<g style="fill:#840000; fill-opacity:0.0; 
stroke:#840000; stroke-width:60.000000; stroke-opacity:1; 
stroke-linecap:round; stroke-linejoin:round;">
<path d="M32500 20500
L33500 20500
" />
</g>
<g style="fill:#A90000; fill-opacity:0.0; 
stroke:#A90000; stroke-width:60.000000; stroke-opacity:1; 
stroke-linecap:round; stroke-linejoin:round;">
<text x="33000.000000" y="20400.000000"
textLength="1012.362205" font-size="666.653543" lengthAdjust="spacingAndGlyphs"
text-anchor="middle" opacity="0">10</text>
<g class="stroked-text"><desc>10</desc>
<path d="M32904 20376
L32619 20376
" />
<path d="M32761 20376
L32761 19876
L32714 19947
L32666 19995
L32619 20019
" />
<path d="M33214 19876
L33261 19876
L33309 19900
L33333 19923
L33357 19971
L33380 20066
L33380 20185
L33357 20280
L33333 20328
L33309 20352
L33261 20376
L33214 20376
L33166 20352
L33142 20328
L33119 20280
L33095 20185
L33095 20066
L33119 19971
L33142 19923
L33166 19900
L33214 19876
" />
</g></g>
<g style="fill:#840000; fill-opacity:0.0; 
stroke:#840000; stroke-width:60.000000; stroke-opacity:1; 
stroke-linecap:round; stroke-linejoin:round;">
<path d="M28500 27500
L27500 27500
" />
</g>
<g style="fill:#A90000; fill-opacity:0.0; 
stroke:#A90000; stroke-width:60.000000; stroke-opacity:1; 
stroke-linecap:round; stroke-linejoin:round;">
<text x="28000.000000" y="27400.000000"
textLength="1012.362205" font-size="666.653543" lengthAdjust="spacingAndGlyphs"
text-anchor="middle" opacity="0">12</text>
<g class="stroked-text"><desc>12</desc>
<path d="M27904 27376
L27619 27376
" />
<path d="M27761 27376
L27761 26876
L27714 26947
L27666 26995
L27619 27019
" />
<path d="M28095 26923
L28119 26900
L28166 26876
L28285 26876
L28333 26900
L28357 26923
L28380 26971
L28380 27019
L28357 27090
L28071 27376
L28380 27376
" />
</g></g>
<g style="fill:#840000; fill-opacity:0.0; 
stroke:#840000; stroke-width:60.000000; stroke-opacity:1; 
stroke-linecap:round; stroke-linejoin:round;">
<path d="M32500 24500
L33500 24500
" />
</g>
<g style="fill:#A90000; fill-opacity:0.0; 
stroke:#A90000; stroke-width:60.000000; stroke-opacity:1; 
stroke-linecap:round; stroke-linejoin:round;">
<text x="33000.000000" y="24400.000000"
textLength="536.181102" font-size="666.653543" lengthAdjust="spacingAndGlyphs"
text-anchor="middle" opacity="0">3</text>
<g class="stroked-text"><desc>3</desc>
<path d="M32833 23876
L33142 23876
L32976 24066
L33047 24066
L33095 24090
L33119 24114
L33142 24161
L33142 24280
L33119 24328
L33095 24352
L33047 24376
L32904 24376
L32857 24352
L32833 24328
" />
</g></g>
<g style="fill:#840000; fill-opacity:0.0; 
stroke:#840000; stroke-width:60.000000; stroke-opacity:1; 
stroke-linecap:round; stroke-linejoin:round;">
<path d="M28500 23500
L27500 23500
" />
</g>
<g style="fill:#A90000; fill-opacity:0.0; 
stroke:#A90000; stroke-width:60.000000; stroke-opacity:1; 
stroke-linecap:round; stroke-linejoin:round;">
<text x="28000.000000" y="23400.000000"
textLength="536.181102" font-size="666.653543" lengthAdjust="spacingAndGlyphs"
text-anchor="middle" opacity="0">4</text>
<g class="stroked-text"><desc>4</desc>
<path d="M28095 23042
L28095 23376
" />
<path d="M27976 22852
L27857 23209
L28166 23209
" />
</g></g>
<g style="fill:#840000; fill-opacity:0.0; 
stroke:#840000; stroke-width:60.000000; stroke-opacity:1; 
stroke-linecap:round; stroke-linejoin:round;">
<path d="M32500 22500
L33500 22500
" />
</g>
<g style="fill:#A90000; fill-opacity:0.0; 
stroke:#A90000; stroke-width:60.000000; stroke-opacity:1; 
stroke-linecap:round; stroke-linejoin:round;">
<text x="33000.000000" y="22400.000000"
textLength="536.181102" font-size="666.653543" lengthAdjust="spacingAndGlyphs"
text-anchor="middle" opacity="0">5</text>
<g class="stroked-text"><desc>5</desc>
<path d="M33119 21876
L32880 21876
L32857 22114
L32880 22090
L32928 22066
L33047 22066
L33095 22090
L33119 22114
L33142 22161
L33142 22280
L33119 22328
L33095 22352
L33047 22376
L32928 22376
L32880 22352
L32857 22328
" />
</g></g>
<g style="fill:#840000; fill-opacity:0.0; 
stroke:#840000; stroke-width:60.000000; stroke-opacity:1; 
stroke-linecap:round; stroke-linejoin:round;">
<path d="M32500 18500
L33500 18500
" />
</g>
<g style="fill:#A90000; fill-opacity:0.0; 
stroke:#A90000; stroke-width:60.000000; stroke-opacity:1; 
stroke-linecap:round; stroke-linejoin:round;">
<text x="33000.000000" y="18400.000000"
textLength="536.181102" font-size="666.653543" lengthAdjust="spacingAndGlyphs"
text-anchor="middle" opacity="0">8</text>
<g class="stroked-text"><desc>8</desc>
<path d="M32952 18090
L32904 18066
L32880 18042
L32857 17995
L32857 17971
L32880 17923
L32904 17900
L32952 17876
L33047 17876
L33095 17900
L33119 17923
L33142 17971
L33142 17995
L33119 18042
L33095 18066
L33047 18090
L32952 18090
L32904 18114
L32880 18138
L32857 18185
L32857 18280
L32880 18328
L32904 18352
L32952 18376
L33047 18376
L33095 18352
L33119 18328
L33142 18280
L33142 18185
L33119 18138
L33095 18114
L33047 18090
" />
</g></g>
<g style="fill:#840000; fill-opacity:0.0; 
stroke:#840000; stroke-width:60.000000; stroke-opacity:1; 
stroke-linecap:round; stroke-linejoin:round;">
<path d="M28500 19500
L27500 19500
" />
</g>
<g style="fill:#A90000; fill-opacity:0.0; 
stroke:#A90000; stroke-width:60.000000; stroke-opacity:1; 
stroke-linecap:round; stroke-linejoin:round;">
<text x="28000.000000" y="19400.000000"
textLength="536.181102" font-size="666.653543" lengthAdjust="spacingAndGlyphs"
text-anchor="middle" opacity="0">9</text>
<g class="stroked-text"><desc>9</desc>
<path d="M27904 19376
L28000 19376
L28047 19352
L28071 19328
L28119 19257
L28142 19161
L28142 18971
L28119 18923
L28095 18900
L28047 18876
L27952 18876
L27904 18900
L27880 18923
L27857 18971
L27857 19090
L27880 19138
L27904 19161
L27952 19185
L28047 19185
L28095 19161
L28119 19138
L28142 19090
" />
</g></g>
<g style="fill:#006464; fill-opacity:0.0; 
stroke:#006464; stroke-width:60.000000; stroke-opacity:1; 
stroke-linecap:round; stroke-linejoin:round;">
<text x="30500.000000" y="16250.000000"
textLength="1036.181102" font-size="666.653543" lengthAdjust="spacingAndGlyphs"
text-anchor="middle" opacity="0">K1</text>
<g class="stroked-text"><desc>K1</desc>
<path d="M30130 16226
L30130 15726
" />
<path d="M30416 16226
L30202 15940
" />
<path d="M30416 15726
L30130 16011
" />
<path d="M30892 16226
L30607 16226
" />
<path d="M30750 16226
L30750 15726
L30702 15797
L30654 15845
L30607 15869
" />
</g><text x="30500.000000" y="17250.000000"
textLength="4107.637795" font-size="666.653543" lengthAdjust="spacingAndGlyphs"
text-anchor="middle" opacity="0">EC2-12NU</text>
<g class="stroked-text"><desc>EC2-12NU</desc>
<path d="M28595 16964
L28761 16964
" />
<path d="M28833 17226
L28595 17226
L28595 16726
L28833 16726
" />
<path d="M29333 17178
L29309 17202
L29238 17226
L29190 17226
L29119 17202
L29071 17154
L29047 17107
L29023 17011
L29023 16940
L29047 16845
L29071 16797
L29119 16750
L29190 16726
L29238 16726
L29309 16750
L29333 16773
" />
<path d="M29523 16773
L29547 16750
L29595 16726
L29714 16726
L29761 16750
L29785 16773
L29809 16821
L29809 16869
L29785 16940
L29500 17226
L29809 17226
" />
<path d="M30023 17035
L30404 17035
" />
<path d="M30904 17226
L30619 17226
" />
<path d="M30761 17226
L30761 16726
L30714 16797
L30666 16845
L30619 16869
" />
<path d="M31095 16773
L31119 16750
L31166 16726
L31285 16726
L31333 16750
L31357 16773
L31380 16821
L31380 16869
L31357 16940
L31071 17226
L31380 17226
" />
<path d="M31595 17226
L31595 16726
L31880 17226
L31880 16726
" />
<path d="M32119 16726
L32119 17130
L32142 17178
L32166 17202
L32214 17226
L32309 17226
L32357 17202
L32380 17178
L32404 17130
L32404 16726
" />
</g></g>
</g>
<g style="fill:#006464; fill-opacity:0.0; 
stroke:#006464; stroke-width:62.519685; stroke-opacity:1; 
stroke-linecap:round; stroke-linejoin:round;">
</g>
<g style="fill:#006464; fill-opacity:0.0; 
stroke:#006464; stroke-width:60.000000; stroke-opacity:1; 
stroke-linecap:round; stroke-linejoin:round;">
</g>
<g style="fill:#840000; fill-opacity:0.0; 
stroke:#840000; stroke-width:60.000000; stroke-opacity:1; 
stroke-linecap:round; stroke-linejoin:round;">
<g transform="rotate(-90.000000 33535.748031 36062.519685)">
<text x="33535.748031" y="36312.519685"
textLength="5155.236220" font-size="666.653543" lengthAdjust="spacingAndGlyphs"
text-anchor="end" opacity="0">Reverse Light</text>
</g>
<g class="stroked-text"><desc>Reverse Light</desc>
<path d="M33761 40782
L33523 40949
" />
<path d="M33761 41068
L33261 41068
L33261 40878
L33285 40830
L33309 40806
L33357 40782
L33428 40782
L33476 40806
L33500 40830
L33523 40878
L33523 41068
" />
<path d="M33738 40378
L33761 40425
L33761 40521
L33738 40568
L33690 40592
L33500 40592
L33452 40568
L33428 40521
L33428 40425
L33452 40378
L33500 40354
L33547 40354
L33595 40592
" />
<path d="M33428 40187
L33761 40068
L33428 39949
" />
<path d="M33738 39568
L33761 39616
L33761 39711
L33738 39759
L33690 39782
L33500 39782
L33452 39759
L33428 39711
L33428 39616
L33452 39568
L33500 39544
L33547 39544
L33595 39782
" />
<path d="M33761 39330
L33428 39330
" />
<path d="M33523 39330
L33476 39306
L33452 39282
L33428 39235
L33428 39187
" />
<path d="M33738 39044
L33761 38997
L33761 38902
L33738 38854
L33690 38830
L33666 38830
L33619 38854
L33595 38902
L33595 38973
L33571 39021
L33523 39044
L33500 39044
L33452 39021
L33428 38973
L33428 38902
L33452 38854
" />
<path d="M33738 38425
L33761 38473
L33761 38568
L33738 38616
L33690 38640
L33500 38640
L33452 38616
L33428 38568
L33428 38473
L33452 38425
L33500 38402
L33547 38402
L33595 38640
" />
<path d="M33761 37568
L33761 37806
L33261 37806
" />
<path d="M33761 37402
L33428 37402
" />
<path d="M33261 37402
L33285 37425
L33309 37402
L33285 37378
L33261 37402
L33309 37402
" />
<path d="M33428 36949
L33833 36949
L33880 36973
L33904 36997
L33928 37044
L33928 37116
L33904 37163
" />
<path d="M33738 36949
L33761 36997
L33761 37092
L33738 37140
L33714 37163
L33666 37187
L33523 37187
L33476 37163
L33452 37140
L33428 37092
L33428 36997
L33452 36949
" />
<path d="M33761 36711
L33261 36711
" />
<path d="M33761 36497
L33500 36497
L33452 36521
L33428 36568
L33428 36640
L33452 36687
L33476 36711
" />
<path d="M33428 36330
L33428 36140
" />
<path d="M33261 36259
L33690 36259
L33738 36235
L33761 36187
L33761 36140
" />
</g><path style="fill:#840000; fill-opacity:0.0; 
stroke:#840000; stroke-width:60.000000; stroke-opacity:1; 
stroke-linecap:round; stroke-linejoin:round;fill:none"
d="M 33500.000000,35500.000000
32999.842520,35937.519685
32999.842520,41532.952756
33500.000000,41532.952756
34000.157480,41532.952756
34000.157480,35937.519685
Z" /> 
</g>
<g style="fill:#840000; fill-opacity:0.0; 
stroke:#840000; stroke-width:62.519685; stroke-opacity:1; 
stroke-linecap:round; stroke-linejoin:round;">
</g>
<g style="fill:#840000; fill-opacity:0.0; 
stroke:#840000; stroke-width:60.000000; stroke-opacity:1; 
stroke-linecap:round; stroke-linejoin:round;">
<text x="40687.519685" y="27285.748031"
textLength="562.519685" font-size="666.653543" lengthAdjust="spacingAndGlyphs"
text-anchor="start" opacity="0">D</text>
<g class="stroked-text"><desc>D</desc>
<path d="M40836 27261
L40836 26761
L40955 26761
L41027 26785
L41074 26833
L41098 26880
L41122 26976
L41122 27047
L41098 27142
L41074 27190
L41027 27238
L40955 27261
L40836 27261
" />
</g><path style="fill:#840000; fill-opacity:0.0; 
stroke:#840000; stroke-width:60.000000; stroke-opacity:1; 
stroke-linecap:round; stroke-linejoin:round;fill:none"
d="M 40500.000000,27000.000000
40500.000000,27500.157480
41500.196850,27500.157480
41937.716535,27000.000000
41500.196850,26499.842520
40500.000000,26499.842520
Z" /> 
</g>
<g style="fill:#840000; fill-opacity:0.0; 
stroke:#840000; stroke-width:62.519685; stroke-opacity:1; 
stroke-linecap:round; stroke-linejoin:round;">
</g>
<g style="fill:#840000; fill-opacity:0.0; 
stroke:#840000; stroke-width:60.000000; stroke-opacity:1; 
stroke-linecap:round; stroke-linejoin:round;">
<text x="40687.519685" y="25785.748031"
textLength="967.283465" font-size="666.653543" lengthAdjust="spacingAndGlyphs"
text-anchor="start" opacity="0">5V</text>
<g class="stroked-text"><desc>5V</desc>
<path d="M41074 25261
L40836 25261
L40812 25500
L40836 25476
L40884 25452
L41003 25452
L41050 25476
L41074 25500
L41098 25547
L41098 25666
L41074 25714
L41050 25738
L41003 25761
L40884 25761
L40836 25738
L40812 25714
" />
<path d="M41241 25261
L41407 25761
L41574 25261
" />
</g><path style="fill:#840000; fill-opacity:0.0; 
stroke:#840000; stroke-width:60.000000; stroke-opacity:1; 
stroke-linecap:round; stroke-linejoin:round;fill:none"
d="M 40500.000000,25500.000000
40500.000000,26000.157480
41904.960630,26000.157480
42342.480315,25500.000000
41904.960630,24999.842520
40500.000000,24999.842520
Z" /> 
</g>
<g style="fill:#840000; fill-opacity:0.0; 
stroke:#840000; stroke-width:62.519685; stroke-opacity:1; 
stroke-linecap:round; stroke-linejoin:round;">
</g>
<g style="fill:#840000; fill-opacity:0.0; 
stroke:#840000; stroke-width:60.000000; stroke-opacity:1; 
stroke-linecap:round; stroke-linejoin:round;">
<g transform="rotate(-90.000000 27535.748031 36062.519685)">
<text x="27535.748031" y="36312.519685"
textLength="1467.283465" font-size="666.653543" lengthAdjust="spacingAndGlyphs"
text-anchor="end" opacity="0">Gnd</text>
</g>
<g class="stroked-text"><desc>Gnd</desc>
<path d="M27285 37116
L27261 37163
L27261 37235
L27285 37306
L27333 37354
L27380 37378
L27476 37402
L27547 37402
L27642 37378
L27690 37354
L27738 37306
L27761 37235
L27761 37187
L27738 37116
L27714 37092
L27547 37092
L27547 37187
" />
<path d="M27428 36878
L27761 36878
" />
<path d="M27476 36878
L27452 36854
L27428 36806
L27428 36735
L27452 36687
L27500 36663
L27761 36663
" />
<path d="M27761 36211
L27261 36211
" />
<path d="M27738 36211
L27761 36259
L27761 36354
L27738 36402
L27714 36425
L27666 36449
L27523 36449
L27476 36425
L27452 36402
L27428 36354
L27428 36259
L27452 36211
" />
</g><path style="fill:#840000; fill-opacity:0.0; 
stroke:#840000; stroke-width:60.000000; stroke-opacity:1; 
stroke-linecap:round; stroke-linejoin:round;fill:none"
d="M 27500.000000,35500.000000
26999.842520,35937.519685
26999.842520,37842.480315
27500.000000,37842.480315
28000.157480,37842.480315
28000.157480,35937.519685
Z" /> 
</g>
<g style="fill:#840000; fill-opacity:0.0; 
stroke:#840000; stroke-width:62.519685; stroke-opacity:1; 
stroke-linecap:round; stroke-linejoin:round;">
</g>
<g style="fill:#840000; fill-opacity:0.0; 
stroke:#840000; stroke-width:60.000000; stroke-opacity:1; 
stroke-linecap:round; stroke-linejoin:round;">
<g transform="rotate(-90.000000 26035.748031 36062.519685)">
<text x="26035.748031" y="36312.519685"
textLength="967.283465" font-size="666.653543" lengthAdjust="spacingAndGlyphs"
text-anchor="end" opacity="0">5V</text>
</g>
<g class="stroked-text"><desc>5V</desc>
<path d="M25761 36640
L25761 36878
L26000 36902
L25976 36878
L25952 36830
L25952 36711
L25976 36663
L26000 36640
L26047 36616
L26166 36616
L26214 36640
L26238 36663
L26261 36711
L26261 36830
L26238 36878
L26214 36902
" />
<path d="M25761 36473
L26261 36306
L25761 36140
" />
</g><path style="fill:#840000; fill-opacity:0.0; 
stroke:#840000; stroke-width:60.000000; stroke-opacity:1; 
stroke-linecap:round; stroke-linejoin:round;fill:none"
d="M 26000.000000,35500.000000
25499.842520,35937.519685
25499.842520,37342.480315
26000.000000,37342.480315
26500.157480,37342.480315
26500.157480,35937.519685
Z" /> 
</g>
<g style="fill:#840000; fill-opacity:0.0; 
stroke:#840000; stroke-width:62.519685; stroke-opacity:1; 
stroke-linecap:round; stroke-linejoin:round;">
</g>
<g style="fill:#840000; fill-opacity:0.0; 
stroke:#840000; stroke-width:60.000000; stroke-opacity:1; 
stroke-linecap:round; stroke-linejoin:round;">
<text x="21437.480315" y="25785.748031"
textLength="11157.755906" font-size="666.653543" lengthAdjust="spacingAndGlyphs"
text-anchor="end" opacity="0">USB-C Power Delivery Sense</text>
<g class="stroked-text"><desc>USB-C Power Delivery Sense</desc>
<path d="M10431 25261
L10431 25666
L10455 25714
L10478 25738
L10526 25761
L10621 25761
L10669 25738
L10693 25714
L10716 25666
L10716 25261
" />
<path d="M10931 25738
L11002 25761
L11121 25761
L11169 25738
L11193 25714
L11216 25666
L11216 25619
L11193 25571
L11169 25547
L11121 25523
L11026 25500
L10978 25476
L10955 25452
L10931 25404
L10931 25357
L10955 25309
L10978 25285
L11026 25261
L11145 25261
L11216 25285
" />
<path d="M11597 25500
L11669 25523
L11693 25547
L11716 25595
L11716 25666
L11693 25714
L11669 25738
L11621 25761
L11431 25761
L11431 25261
L11597 25261
L11645 25285
L11669 25309
L11693 25357
L11693 25404
L11669 25452
L11645 25476
L11597 25500
L11431 25500
" />
<path d="M11931 25571
L12312 25571
" />
<path d="M12836 25714
L12812 25738
L12740 25761
L12693 25761
L12621 25738
L12574 25690
L12550 25642
L12526 25547
L12526 25476
L12550 25380
L12574 25333
L12621 25285
L12693 25261
L12740 25261
L12812 25285
L12836 25309
" />
<path d="M13431 25761
L13431 25261
L13621 25261
L13669 25285
L13693 25309
L13716 25357
L13716 25428
L13693 25476
L13669 25500
L13621 25523
L13431 25523
" />
<path d="M14002 25761
L13955 25738
L13931 25714
L13907 25666
L13907 25523
L13931 25476
L13955 25452
L14002 25428
L14074 25428
L14121 25452
L14145 25476
L14169 25523
L14169 25666
L14145 25714
L14121 25738
L14074 25761
L14002 25761
" />
<path d="M14336 25428
L14431 25761
L14526 25523
L14621 25761
L14716 25428
" />
<path d="M15097 25738
L15050 25761
L14955 25761
L14907 25738
L14883 25690
L14883 25500
L14907 25452
L14955 25428
L15050 25428
L15097 25452
L15121 25500
L15121 25547
L14883 25595
" />
<path d="M15336 25761
L15336 25428
" />
<path d="M15336 25523
L15359 25476
L15383 25452
L15431 25428
L15478 25428
" />
<path d="M16026 25761
L16026 25261
L16145 25261
L16216 25285
L16264 25333
L16288 25380
L16312 25476
L16312 25547
L16288 25642
L16264 25690
L16216 25738
L16145 25761
L16026 25761
" />
<path d="M16716 25738
L16669 25761
L16574 25761
L16526 25738
L16502 25690
L16502 25500
L16526 25452
L16574 25428
L16669 25428
L16716 25452
L16740 25500
L16740 25547
L16502 25595
" />
<path d="M17026 25761
L16978 25738
L16955 25690
L16955 25261
" />
<path d="M17216 25761
L17216 25428
" />
<path d="M17216 25261
L17193 25285
L17216 25309
L17240 25285
L17216 25261
L17216 25309
" />
<path d="M17407 25428
L17526 25761
L17645 25428
" />
<path d="M18026 25738
L17978 25761
L17883 25761
L17836 25738
L17812 25690
L17812 25500
L17836 25452
L17883 25428
L17978 25428
L18026 25452
L18050 25500
L18050 25547
L17812 25595
" />
<path d="M18264 25761
L18264 25428
" />
<path d="M18264 25523
L18288 25476
L18312 25452
L18359 25428
L18407 25428
" />
<path d="M18526 25428
L18645 25761
" />
<path d="M18764 25428
L18645 25761
L18597 25880
L18574 25904
L18526 25928
" />
<path d="M19312 25738
L19383 25761
L19502 25761
L19550 25738
L19574 25714
L19597 25666
L19597 25619
L19574 25571
L19550 25547
L19502 25523
L19407 25500
L19359 25476
L19336 25452
L19312 25404
L19312 25357
L19336 25309
L19359 25285
L19407 25261
L19526 25261
L19597 25285
" />
<path d="M20002 25738
L19955 25761
L19859 25761
L19812 25738
L19788 25690
L19788 25500
L19812 25452
L19859 25428
L19955 25428
L20002 25452
L20026 25500
L20026 25547
L19788 25595
" />
<path d="M20240 25428
L20240 25761
" />
<path d="M20240 25476
L20264 25452
L20312 25428
L20383 25428
L20431 25452
L20455 25500
L20455 25761
" />
<path d="M20669 25738
L20716 25761
L20812 25761
L20859 25738
L20883 25690
L20883 25666
L20859 25619
L20812 25595
L20740 25595
L20693 25571
L20669 25523
L20669 25500
L20693 25452
L20740 25428
L20812 25428
L20859 25452
" />
<path d="M21288 25738
L21240 25761
L21145 25761
L21097 25738
L21074 25690
L21074 25500
L21097 25452
L21145 25428
L21240 25428
L21288 25452
L21312 25500
L21312 25547
L21074 25595
" />
</g><path style="fill:#840000; fill-opacity:0.0; 
stroke:#840000; stroke-width:60.000000; stroke-opacity:1; 
stroke-linecap:round; stroke-linejoin:round;fill:none"
d="M 22000.000000,25500.000000
21562.480315,24999.842520
9967.047244,24999.842520
9529.527559,25500.000000
9967.047244,26000.157480
21562.480315,26000.157480
Z" /> 
</g>
<g style="fill:#840000; fill-opacity:0.0; 
stroke:#840000; stroke-width:62.519685; stroke-opacity:1; 
stroke-linecap:round; stroke-linejoin:round;">
</g>
<g style="fill:#840000; fill-opacity:0.0; 
stroke:#840000; stroke-width:60.000000; stroke-opacity:1; 
stroke-linecap:round; stroke-linejoin:round;">
<text x="21437.480315" y="27285.748031"
textLength="1181.574803" font-size="666.653543" lengthAdjust="spacingAndGlyphs"
text-anchor="end" opacity="0">D+</text>
<g class="stroked-text"><desc>D+</desc>
<path d="M20407 27261
L20407 26761
L20526 26761
L20597 26785
L20645 26833
L20669 26880
L20693 26976
L20693 27047
L20669 27142
L20645 27190
L20597 27238
L20526 27261
L20407 27261
" />
<path d="M20907 27071
L21288 27071
" />
<path d="M21097 27261
L21097 26880
" />
</g><path style="fill:#840000; fill-opacity:0.0; 
stroke:#840000; stroke-width:60.000000; stroke-opacity:1; 
stroke-linecap:round; stroke-linejoin:round;fill:none"
d="M 22000.000000,27000.000000
21562.480315,26499.842520
19943.228346,26499.842520
19505.708661,27000.000000
19943.228346,27500.157480
21562.480315,27500.157480
Z" /> 
</g>
<g style="fill:#840000; fill-opacity:0.0; 
stroke:#840000; stroke-width:62.519685; stroke-opacity:1; 
stroke-linecap:round; stroke-linejoin:round;">
</g>
<g style="fill:#840000; fill-opacity:0.0; 
stroke:#840000; stroke-width:60.000000; stroke-opacity:1; 
stroke-linecap:round; stroke-linejoin:round;">
<text x="21437.480315" y="28785.748031"
textLength="1181.574803" font-size="666.653543" lengthAdjust="spacingAndGlyphs"
text-anchor="end" opacity="0">D-</text>
<g class="stroked-text"><desc>D-</desc>
<path d="M20407 28761
L20407 28261
L20526 28261
L20597 28285
L20645 28333
L20669 28380
L20693 28476
L20693 28547
L20669 28642
L20645 28690
L20597 28738
L20526 28761
L20407 28761
" />
<path d="M20907 28571
L21288 28571
" />
</g><path style="fill:#840000; fill-opacity:0.0; 
stroke:#840000; stroke-width:60.000000; stroke-opacity:1; 
stroke-linecap:round; stroke-linejoin:round;fill:none"
d="M 22000.000000,28500.000000
21562.480315,27999.842520
19943.228346,27999.842520
19505.708661,28500.000000
19943.228346,29000.157480
21562.480315,29000.157480
Z" /> 
</g>
<g style="fill:#840000; fill-opacity:0.0; 
stroke:#840000; stroke-width:62.519685; stroke-opacity:1; 
stroke-linecap:round; stroke-linejoin:round;">
</g>
<g style="fill:#840000; fill-opacity:0.0; 
stroke:#840000; stroke-width:60.000000; stroke-opacity:1; 
stroke-linecap:round; stroke-linejoin:round;">
<text x="21437.480315" y="30285.748031"
textLength="1467.283465" font-size="666.653543" lengthAdjust="spacingAndGlyphs"
text-anchor="end" opacity="0">Gnd</text>
<g class="stroked-text"><desc>Gnd</desc>
<path d="M20383 29785
L20336 29761
L20264 29761
L20193 29785
L20145 29833
L20121 29880
L20097 29976
L20097 30047
L20121 30142
L20145 30190
L20193 30238
L20264 30261
L20312 30261
L20383 30238
L20407 30214
L20407 30047
L20312 30047
" />
<path d="M20621 29928
L20621 30261
" />
<path d="M20621 29976
L20645 29952
L20693 29928
L20764 29928
L20812 29952
L20836 30000
L20836 30261
" />
<path d="M21288 30261
L21288 29761
" />
<path d="M21288 30238
L21240 30261
L21145 30261
L21097 30238
L21074 30214
L21050 30166
L21050 30023
L21074 29976
L21097 29952
L21145 29928
L21240 29928
L21288 29952
" />
</g><path style="fill:#840000; fill-opacity:0.0; 
stroke:#840000; stroke-width:60.000000; stroke-opacity:1; 
stroke-linecap:round; stroke-linejoin:round;fill:none"
d="M 22000.000000,30000.000000
21562.480315,29499.842520
19657.519685,29499.842520
19220.000000,30000.000000
19657.519685,30500.157480
21562.480315,30500.157480
Z" /> 
</g>
<g style="fill:#840000; fill-opacity:0.0; 
stroke:#840000; stroke-width:62.519685; stroke-opacity:1; 
stroke-linecap:round; stroke-linejoin:round;">
</g>
<g style="fill:#840000; fill-opacity:0.0; 
stroke:#840000; stroke-width:60.000000; stroke-opacity:1; 
stroke-linecap:round; stroke-linejoin:round;">
<text x="40687.519685" y="30285.748031"
textLength="1467.283465" font-size="666.653543" lengthAdjust="spacingAndGlyphs"
text-anchor="start" opacity="0">Gnd</text>
<g class="stroked-text"><desc>Gnd</desc>
<path d="M41098 29785
L41050 29761
L40979 29761
L40907 29785
L40860 29833
L40836 29880
L40812 29976
L40812 30047
L40836 30142
L40860 30190
L40907 30238
L40979 30261
L41027 30261
L41098 30238
L41122 30214
L41122 30047
L41027 30047
" />
<path d="M41336 29928
L41336 30261
" />
<path d="M41336 29976
L41360 29952
L41407 29928
L41479 29928
L41527 29952
L41550 30000
L41550 30261
" />
<path d="M42003 30261
L42003 29761
" />
<path d="M42003 30238
L41955 30261
L41860 30261
L41812 30238
L41788 30214
L41765 30166
L41765 30023
L41788 29976
L41812 29952
L41860 29928
L41955 29928
L42003 29952
" />
</g><path style="fill:#840000; fill-opacity:0.0; 
stroke:#840000; stroke-width:60.000000; stroke-opacity:1; 
stroke-linecap:round; stroke-linejoin:round;fill:none"
d="M 40500.000000,30000.000000
40500.000000,30500.157480
42404.960630,30500.157480
42842.480315,30000.000000
42404.960630,29499.842520
40500.000000,29499.842520
Z" /> 
</g>
<g style="fill:#840000; fill-opacity:0.0; 
stroke:#840000; stroke-width:62.519685; stroke-opacity:1; 
stroke-linecap:round; stroke-linejoin:round;">
</g>
<g style="fill:#840000; fill-opacity:0.0; 
stroke:#840000; stroke-width:60.000000; stroke-opacity:1; 
stroke-linecap:round; stroke-linejoin:round;">
<text x="21437.480315" y="24285.748031"
textLength="967.283465" font-size="666.653543" lengthAdjust="spacingAndGlyphs"
text-anchor="end" opacity="0">5V</text>
<g class="stroked-text"><desc>5V</desc>
<path d="M20859 23761
L20621 23761
L20597 24000
L20621 23976
L20669 23952
L20788 23952
L20836 23976
L20859 24000
L20883 24047
L20883 24166
L20859 24214
L20836 24238
L20788 24261
L20669 24261
L20621 24238
L20597 24214
" />
<path d="M21026 23761
L21193 24261
L21359 23761
" />
</g><path style="fill:#840000; fill-opacity:0.0; 
stroke:#840000; stroke-width:60.000000; stroke-opacity:1; 
stroke-linecap:round; stroke-linejoin:round;fill:none"
d="M 22000.000000,24000.000000
21562.480315,23499.842520
20157.519685,23499.842520
19720.000000,24000.000000
20157.519685,24500.157480
21562.480315,24500.157480
Z" /> 
</g>
<g style="fill:#840000; fill-opacity:0.0; 
stroke:#840000; stroke-width:62.519685; stroke-opacity:1; 
stroke-linecap:round; stroke-linejoin:round;">
</g>
<g style="fill:#840000; fill-opacity:0.0; 
stroke:#840000; stroke-width:60.000000; stroke-opacity:1; 
stroke-linecap:round; stroke-linejoin:round;">
<text x="40687.519685" y="28785.748031"
textLength="1181.574803" font-size="666.653543" lengthAdjust="spacingAndGlyphs"
text-anchor="start" opacity="0">D-</text>
<g class="stroked-text"><desc>D-</desc>
<path d="M40836 28761
L40836 28261
L40955 28261
L41027 28285
L41074 28333
L41098 28380
L41122 28476
L41122 28547
L41098 28642
L41074 28690
L41027 28738
L40955 28761
L40836 28761
" />
<path d="M41336 28571
L41717 28571
" />
</g><path style="fill:#840000; fill-opacity:0.0; 
stroke:#840000; stroke-width:60.000000; stroke-opacity:1; 
stroke-linecap:round; stroke-linejoin:round;fill:none"
d="M 40500.000000,28500.000000
40500.000000,29000.157480
42119.251969,29000.157480
42556.771654,28500.000000
42119.251969,27999.842520
40500.000000,27999.842520
Z" /> 
</g>
<g style="fill:#009600; fill-opacity:0.0; 
stroke:#009600; stroke-width:60.000000; stroke-opacity:1; 
stroke-linecap:round; stroke-linejoin:round;">
<path d="M24000 24000
L24000 15000
" />
<path d="M22000 24000
L24000 24000
" />
<path d="M26000 19500
L26000 35500
" />
<path d="M34500 15000
L34500 18500
" />
<path d="M34500 18500
L33500 18500
" />
<path d="M26000 19500
L27500 19500
" />
<path d="M26000 13000
L26000 19500
" />
<path d="M38500 22500
L38500 13000
" />
<path d="M24000 15000
L34500 15000
" />
<path d="M38500 13000
L26000 13000
" />
<path d="M37500 32500
L37500 28500
" />
<path d="M36500 31500
L36500 27000
" />
<path d="M37500 28500
L40500 28500
" />
<path d="M36500 27000
L40500 27000
" />
<path d="M33500 27500
L33500 35500
" />
<path d="M38500 30000
L40500 30000
" />
<path d="M38500 24500
L38500 30000
" />
<path d="M23000 30000
L23000 33500
" />
<path d="M25000 25500
L25000 23500
" />
<path d="M25000 23500
L27500 23500
" />
<path d="M22000 25500
L25000 25500
" />
<path d="M25000 27000
L25000 31500
" />
<path d="M22000 28500
L24000 28500
" />
<path d="M22000 30000
L23000 30000
" />
<path d="M24000 28500
L24000 32500
" />
<path d="M22000 27000
L25000 27000
" />
<path d="M24000 32500
L37500 32500
" />
<path d="M25000 31500
L36500 31500
" />
<path d="M38500 22500
L36500 22500
" />
<path d="M27500 33500
L38500 33500
" />
<path d="M38500 33500
L38500 30000
" />
<path d="M23000 33500
L27500 33500
" />
<path d="M27500 27500
L27500 33500
" />
<path d="M27500 33500
L27500 35500
" />
<path d="M36500 24500
L38500 24500
" />
<path d="M39500 25500
L40500 25500
" />
<path d="M39500 20500
L39500 25500
" />
<path d="M33500 20500
L39500 20500
" />
</g>
<g style="fill:#006464; fill-opacity:0.0; 
stroke:#006464; stroke-width:60.000000; stroke-opacity:1; 
stroke-linecap:round; stroke-linejoin:round;">
<text x="37000.000000" y="24249.960630"
textLength="1038.700787" font-size="666.653543" lengthAdjust="spacingAndGlyphs"
text-anchor="middle" opacity="0">R2</text>
<g class="stroked-text"><desc>R2</desc>
<path d="M36916 24226
L36750 23988
" />
<path d="M36630 24226
L36630 23726
L36821 23726
L36869 23749
L36892 23773
L36916 23821
L36916 23892
L36892 23940
L36869 23964
L36821 23988
L36630 23988
" />
<path d="M37107 23773
L37130 23749
L37178 23726
L37297 23726
L37345 23749
L37369 23773
L37392 23821
L37392 23868
L37369 23940
L37083 24226
L37392 24226
" />
</g><text x="37000.000000" y="25249.960630"
textLength="1417.125984" font-size="666.653543" lengthAdjust="spacingAndGlyphs"
text-anchor="middle" opacity="0">15k</text>
<g class="stroked-text"><desc>15k</desc>
<path d="M36702 25226
L36416 25226
" />
<path d="M36559 25226
L36559 24726
L36511 24797
L36464 24845
L36416 24868
" />
<path d="M37154 24726
L36916 24726
L36892 24964
L36916 24940
L36964 24916
L37083 24916
L37130 24940
L37154 24964
L37178 25011
L37178 25130
L37154 25178
L37130 25202
L37083 25226
L36964 25226
L36916 25202
L36892 25178
" />
<path d="M37392 25226
L37392 24726
" />
<path d="M37440 25035
L37583 25226
" />
<path d="M37583 24892
L37392 25083
" />
</g></g>
<g style="fill:#840000; fill-opacity:0.0; 
stroke:#840000; stroke-width:60.000000; stroke-opacity:1; 
stroke-linecap:round; stroke-linejoin:round;">
<path d="M36000 24500
L36500 24500
" />
<path d="M34000 24500
L33500 24500
" />
</g>
<g style="fill:#006464; fill-opacity:0.0; 
stroke:#006464; stroke-width:60.000000; stroke-opacity:1; 
stroke-linecap:round; stroke-linejoin:round;">
<text x="37000.000000" y="22249.960630"
textLength="1036.181102" font-size="666.653543" lengthAdjust="spacingAndGlyphs"
text-anchor="middle" opacity="0">R1</text>
<g class="stroked-text"><desc>R1</desc>
<path d="M36916 22226
L36750 21988
" />
<path d="M36630 22226
L36630 21726
L36821 21726
L36869 21749
L36892 21773
L36916 21821
L36916 21892
L36892 21940
L36869 21964
L36821 21988
L36630 21988
" />
<path d="M37392 22226
L37107 22226
" />
<path d="M37250 22226
L37250 21726
L37202 21797
L37154 21845
L37107 21868
" />
</g><text x="37000.000000" y="23249.960630"
textLength="1417.125984" font-size="666.653543" lengthAdjust="spacingAndGlyphs"
text-anchor="middle" opacity="0">39k</text>
<g class="stroked-text"><desc>39k</desc>
<path d="M36392 22726
L36702 22726
L36535 22916
L36607 22916
L36654 22940
L36678 22964
L36702 23011
L36702 23130
L36678 23178
L36654 23202
L36607 23226
L36464 23226
L36416 23202
L36392 23178
" />
<path d="M36940 23226
L37035 23226
L37083 23202
L37107 23178
L37154 23107
L37178 23011
L37178 22821
L37154 22773
L37130 22749
L37083 22726
L36988 22726
L36940 22749
L36916 22773
L36892 22821
L36892 22940
L36916 22988
L36940 23011
L36988 23035
L37083 23035
L37130 23011
L37154 22988
L37178 22940
" />
<path d="M37392 23226
L37392 22726
" />
<path d="M37440 23035
L37583 23226
" />
<path d="M37583 22892
L37392 23083
" />
</g></g>
<g style="fill:#840000; fill-opacity:0.0; 
stroke:#840000; stroke-width:60.000000; stroke-opacity:1; 
stroke-linecap:round; stroke-linejoin:round;">
<path d="M36000 22500
L36500 22500
" />
<path d="M34000 22500
L33500 22500
" />
</g>
<g style="fill:#006464; fill-opacity:0.0; 
stroke:#006464; stroke-width:60.000000; stroke-opacity:1; 
stroke-linecap:round; stroke-linejoin:round;">
<text x="30500.000000" y="16250.000000"
textLength="1036.181102" font-size="666.653543" lengthAdjust="spacingAndGlyphs"
text-anchor="middle" opacity="0">K1</text>
<g class="stroked-text"><desc>K1</desc>
<path d="M30130 16226
L30130 15726
" />
<path d="M30416 16226
L30202 15940
" />
<path d="M30416 15726
L30130 16011
" />
<path d="M30892 16226
L30607 16226
" />
<path d="M30750 16226
L30750 15726
L30702 15797
L30654 15845
L30607 15869
" />
</g><text x="30500.000000" y="17250.000000"
textLength="4107.637795" font-size="666.653543" lengthAdjust="spacingAndGlyphs"
text-anchor="middle" opacity="0">EC2-12NU</text>
<g class="stroked-text"><desc>EC2-12NU</desc>
<path d="M28595 16964
L28761 16964
" />
<path d="M28833 17226
L28595 17226
L28595 16726
L28833 16726
" />
<path d="M29333 17178
L29309 17202
L29238 17226
L29190 17226
L29119 17202
L29071 17154
L29047 17107
L29023 17011
L29023 16940
L29047 16845
L29071 16797
L29119 16750
L29190 16726
L29238 16726
L29309 16750
L29333 16773
" />
<path d="M29523 16773
L29547 16750
L29595 16726
L29714 16726
L29761 16750
L29785 16773
L29809 16821
L29809 16869
L29785 16940
L29500 17226
L29809 17226
" />
<path d="M30023 17035
L30404 17035
" />
<path d="M30904 17226
L30619 17226
" />
<path d="M30761 17226
L30761 16726
L30714 16797
L30666 16845
L30619 16869
" />
<path d="M31095 16773
L31119 16750
L31166 16726
L31285 16726
L31333 16750
L31357 16773
L31380 16821
L31380 16869
L31357 16940
L31071 17226
L31380 17226
" />
<path d="M31595 17226
L31595 16726
L31880 17226
L31880 16726
" />
<path d="M32119 16726
L32119 17130
L32142 17178
L32166 17202
L32214 17226
L32309 17226
L32357 17202
L32380 17178
L32404 17130
L32404 16726
" />
</g></g>
<g style="fill:#840000; fill-opacity:0.0; 
stroke:#840000; stroke-width:60.000000; stroke-opacity:1; 
stroke-linecap:round; stroke-linejoin:round;">
<path d="M32500 27500
L33500 27500
" />
</g>
<g style="fill:#A90000; fill-opacity:0.0; 
stroke:#A90000; stroke-width:60.000000; stroke-opacity:1; 
stroke-linecap:round; stroke-linejoin:round;">
<text x="33000.000000" y="27400.000000"
textLength="536.181102" font-size="666.653543" lengthAdjust="spacingAndGlyphs"
text-anchor="middle" opacity="0">1</text>
<g class="stroked-text"><desc>1</desc>
<path d="M33142 27376
L32857 27376
" />
<path d="M33000 27376
L33000 26876
L32952 26947
L32904 26995
L32857 27019
" />
</g></g>
<g style="fill:#840000; fill-opacity:0.0; 
stroke:#840000; stroke-width:60.000000; stroke-opacity:1; 
stroke-linecap:round; stroke-linejoin:round;">
<path d="M32500 20500
L33500 20500
" />
</g>
<g style="fill:#A90000; fill-opacity:0.0; 
stroke:#A90000; stroke-width:60.000000; stroke-opacity:1; 
stroke-linecap:round; stroke-linejoin:round;">
<text x="33000.000000" y="20400.000000"
textLength="1012.362205" font-size="666.653543" lengthAdjust="spacingAndGlyphs"
text-anchor="middle" opacity="0">10</text>
<g class="stroked-text"><desc>10</desc>
<path d="M32904 20376
L32619 20376
" />
<path d="M32761 20376
L32761 19876
L32714 19947
L32666 19995
L32619 20019
" />
<path d="M33214 19876
L33261 19876
L33309 19900
L33333 19923
L33357 19971
L33380 20066
L33380 20185
L33357 20280
L33333 20328
L33309 20352
L33261 20376
L33214 20376
L33166 20352
L33142 20328
L33119 20280
L33095 20185
L33095 20066
L33119 19971
L33142 19923
L33166 19900
L33214 19876
" />
</g></g>
<g style="fill:#840000; fill-opacity:0.0; 
stroke:#840000; stroke-width:60.000000; stroke-opacity:1; 
stroke-linecap:round; stroke-linejoin:round;">
<path d="M28500 27500
L27500 27500
" />
</g>
<g style="fill:#A90000; fill-opacity:0.0; 
stroke:#A90000; stroke-width:60.000000; stroke-opacity:1; 
stroke-linecap:round; stroke-linejoin:round;">
<text x="28000.000000" y="27400.000000"
textLength="1012.362205" font-size="666.653543" lengthAdjust="spacingAndGlyphs"
text-anchor="middle" opacity="0">12</text>
<g class="stroked-text"><desc>12</desc>
<path d="M27904 27376
L27619 27376
" />
<path d="M27761 27376
L27761 26876
L27714 26947
L27666 26995
L27619 27019
" />
<path d="M28095 26923
L28119 26900
L28166 26876
L28285 26876
L28333 26900
L28357 26923
L28380 26971
L28380 27019
L28357 27090
L28071 27376
L28380 27376
" />
</g></g>
<g style="fill:#840000; fill-opacity:0.0; 
stroke:#840000; stroke-width:60.000000; stroke-opacity:1; 
stroke-linecap:round; stroke-linejoin:round;">
<path d="M32500 24500
L33500 24500
" />
</g>
<g style="fill:#A90000; fill-opacity:0.0; 
stroke:#A90000; stroke-width:60.000000; stroke-opacity:1; 
stroke-linecap:round; stroke-linejoin:round;">
<text x="33000.000000" y="24400.000000"
textLength="536.181102" font-size="666.653543" lengthAdjust="spacingAndGlyphs"
text-anchor="middle" opacity="0">3</text>
<g class="stroked-text"><desc>3</desc>
<path d="M32833 23876
L33142 23876
L32976 24066
L33047 24066
L33095 24090
L33119 24114
L33142 24161
L33142 24280
L33119 24328
L33095 24352
L33047 24376
L32904 24376
L32857 24352
L32833 24328
" />
</g></g>
<g style="fill:#840000; fill-opacity:0.0; 
stroke:#840000; stroke-width:60.000000; stroke-opacity:1; 
stroke-linecap:round; stroke-linejoin:round;">
<path d="M28500 23500
L27500 23500
" />
</g>
<g style="fill:#A90000; fill-opacity:0.0; 
stroke:#A90000; stroke-width:60.000000; stroke-opacity:1; 
stroke-linecap:round; stroke-linejoin:round;">
<text x="28000.000000" y="23400.000000"
textLength="536.181102" font-size="666.653543" lengthAdjust="spacingAndGlyphs"
text-anchor="middle" opacity="0">4</text>
<g class="stroked-text"><desc>4</desc>
<path d="M28095 23042
L28095 23376
" />
<path d="M27976 22852
L27857 23209
L28166 23209
" />
</g></g>
<g style="fill:#840000; fill-opacity:0.0; 
stroke:#840000; stroke-width:60.000000; stroke-opacity:1; 
stroke-linecap:round; stroke-linejoin:round;">
<path d="M32500 22500
L33500 22500
" />
</g>
<g style="fill:#A90000; fill-opacity:0.0; 
stroke:#A90000; stroke-width:60.000000; stroke-opacity:1; 
stroke-linecap:round; stroke-linejoin:round;">
<text x="33000.000000" y="22400.000000"
textLength="536.181102" font-size="666.653543" lengthAdjust="spacingAndGlyphs"
text-anchor="middle" opacity="0">5</text>
<g class="stroked-text"><desc>5</desc>
<path d="M33119 21876
L32880 21876
L32857 22114
L32880 22090
L32928 22066
L33047 22066
L33095 22090
L33119 22114
L33142 22161
L33142 22280
L33119 22328
L33095 22352
L33047 22376
L32928 22376
L32880 22352
L32857 22328
" />
</g></g>
<g style="fill:#840000; fill-opacity:0.0; 
stroke:#840000; stroke-width:60.000000; stroke-opacity:1; 
stroke-linecap:round; stroke-linejoin:round;">
<path d="M32500 18500
L33500 18500
" />
</g>
<g style="fill:#A90000; fill-opacity:0.0; 
stroke:#A90000; stroke-width:60.000000; stroke-opacity:1; 
stroke-linecap:round; stroke-linejoin:round;">
<text x="33000.000000" y="18400.000000"
textLength="536.181102" font-size="666.653543" lengthAdjust="spacingAndGlyphs"
text-anchor="middle" opacity="0">8</text>
<g class="stroked-text"><desc>8</desc>
<path d="M32952 18090
L32904 18066
L32880 18042
L32857 17995
L32857 17971
L32880 17923
L32904 17900
L32952 17876
L33047 17876
L33095 17900
L33119 17923
L33142 17971
L33142 17995
L33119 18042
L33095 18066
L33047 18090
L32952 18090
L32904 18114
L32880 18138
L32857 18185
L32857 18280
L32880 18328
L32904 18352
L32952 18376
L33047 18376
L33095 18352
L33119 18328
L33142 18280
L33142 18185
L33119 18138
L33095 18114
L33047 18090
" />
</g></g>
<g style="fill:#840000; fill-opacity:0.0; 
stroke:#840000; stroke-width:60.000000; stroke-opacity:1; 
stroke-linecap:round; stroke-linejoin:round;">
<path d="M28500 19500
L27500 19500
" />
</g>
<g style="fill:#A90000; fill-opacity:0.0; 
stroke:#A90000; stroke-width:60.000000; stroke-opacity:1; 
stroke-linecap:round; stroke-linejoin:round;">
<text x="28000.000000" y="19400.000000"
textLength="536.181102" font-size="666.653543" lengthAdjust="spacingAndGlyphs"
text-anchor="middle" opacity="0">9</text>
<g class="stroked-text"><desc>9</desc>
<path d="M27904 19376
L28000 19376
L28047 19352
L28071 19328
L28119 19257
L28142 19161
L28142 18971
L28119 18923
L28095 18900
L28047 18876
L27952 18876
L27904 18900
L27880 18923
L27857 18971
L27857 19090
L27880 19138
L27904 19161
L27952 19185
L28047 19185
L28095 19161
L28119 19138
L28142 19090
" />
</g></g>
<g style="fill:#009600; fill-opacity:0.0; 
stroke:#009600; stroke-width:60.000000; stroke-opacity:1; 
stroke-linecap:round; stroke-linejoin:round;">
</g>
<g style="fill:#009600; fill-opacity:1.0; 
stroke:#009600; stroke-width:60.000000; stroke-opacity:1; 
stroke-linecap:round; stroke-linejoin:round;">
<circle cx="27500.000000" cy="33500.000000" r="180.000000" /> 
<circle cx="38500.000000" cy="30000.000000" r="180.000000" /> 
<circle cx="26000.000000" cy="19500.000000" r="180.000000" /> 
</g> 
</svg>
