<?xml version="1.0" standalone="no"?>
 <!DOCTYPE svg PUBLIC "-//W3C//DTD SVG 1.1//EN" 
 "http://www.w3.org/Graphics/SVG/1.1/DTD/svg11.dtd"> 
<svg
  xmlns:svg="http://www.w3.org/2000/svg"
  xmlns="http://www.w3.org/2000/svg"
  xmlns:xlink="http://www.w3.org/1999/xlink"
  version="1.1"
  width="106mm" height="86mm" viewBox="12000 38000 26500 21500">
<title>SVG Picture created as Relay.svg date 2022/09/09 23:43:55 </title>
  <desc>Picture generated by Eeschema-SVG </desc>
<g style="fill:#FFFFFF; fill-opacity:1.000000;stroke:#000000; stroke-opacity:1.000000;
stroke-linecap:round; stroke-linejoin:round;"
 transform="translate(0 0) scale(1 1)">
<rect x="12000.000000" y="38000.000000" width="26500.000000" height="21500.000000" rx="0.000000" />
</g>
<g style="fill:#000000; fill-opacity:0.0; 
stroke:#000000; stroke-width:60.000000; stroke-opacity:1; 
stroke-linecap:round; stroke-linejoin:round;">
<g style="fill:#840000; fill-opacity:0.0; 
stroke:#840000; stroke-width:60.000000; stroke-opacity:1; 
stroke-linecap:round; stroke-linejoin:round;">
</g>
<g style="fill:#840000; fill-opacity:0.0; 
stroke:#840000; stroke-width:100.000000; stroke-opacity:1; 
stroke-linecap:round; stroke-linejoin:round;">
<rect x="24000.000000" y="53100.000000" width="2000.000000" height="800.000000" rx="0.000000" />
</g>
<g style="fill:#840000; fill-opacity:0.0; 
stroke:#840000; stroke-width:60.000000; stroke-opacity:1; 
stroke-linecap:round; stroke-linejoin:round;">
<path d="M26000 53500
L26500 53500
" />
<path d="M24000 53500
L23500 53500
" />
</g>
<g style="fill:#006464; fill-opacity:0.0; 
stroke:#006464; stroke-width:60.000000; stroke-opacity:1; 
stroke-linecap:round; stroke-linejoin:round;">
<text x="25000.000000" y="54749.960630"
textLength="2296.653543" font-size="666.653543" lengthAdjust="spacingAndGlyphs"
text-anchor="middle" opacity="0">RHost</text>
<g class="stroked-text"><desc>RHost</desc>
<path d="M24321 54726
L24154 54488
" />
<path d="M24035 54726
L24035 54226
L24226 54226
L24273 54249
L24297 54273
L24321 54321
L24321 54392
L24297 54440
L24273 54464
L24226 54488
L24035 54488
" />
<path d="M24535 54726
L24535 54226
" />
<path d="M24535 54464
L24821 54464
" />
<path d="M24821 54726
L24821 54226
" />
<path d="M25130 54726
L25083 54702
L25059 54678
L25035 54630
L25035 54488
L25059 54440
L25083 54416
L25130 54392
L25202 54392
L25250 54416
L25273 54440
L25297 54488
L25297 54630
L25273 54678
L25250 54702
L25202 54726
L25130 54726
" />
<path d="M25488 54702
L25535 54726
L25630 54726
L25678 54702
L25702 54654
L25702 54630
L25678 54583
L25630 54559
L25559 54559
L25511 54535
L25488 54488
L25488 54464
L25511 54416
L25559 54392
L25630 54392
L25678 54416
" />
<path d="M25845 54392
L26035 54392
" />
<path d="M25916 54226
L25916 54654
L25940 54702
L25988 54726
L26035 54726
" />
</g><text x="25000.000000" y="55652.480315"
textLength="1417.125984" font-size="666.653543" lengthAdjust="spacingAndGlyphs"
text-anchor="middle" opacity="0">15k</text>
<g class="stroked-text"><desc>15k</desc>
<path d="M24702 55628
L24416 55628
" />
<path d="M24559 55628
L24559 55128
L24511 55200
L24464 55247
L24416 55271
" />
<path d="M25154 55128
L24916 55128
L24892 55366
L24916 55342
L24964 55319
L25083 55319
L25130 55342
L25154 55366
L25178 55414
L25178 55533
L25154 55581
L25130 55604
L25083 55628
L24964 55628
L24916 55604
L24892 55581
" />
<path d="M25392 55628
L25392 55128
" />
<path d="M25440 55438
L25583 55628
" />
<path d="M25583 55295
L25392 55485
" />
</g></g>
</g>
<g style="fill:#006464; fill-opacity:0.0; 
stroke:#006464; stroke-width:60.000000; stroke-opacity:1; 
stroke-linecap:round; stroke-linejoin:round;">
<g >
</g>
<g style="fill:#840000; fill-opacity:0.0; 
stroke:#840000; stroke-width:60.000000; stroke-opacity:1; 
stroke-linecap:round; stroke-linejoin:round;">
</g>
<g style="fill:#840000; fill-opacity:0.0; 
stroke:#840000; stroke-width:100.000000; stroke-opacity:1; 
stroke-linecap:round; stroke-linejoin:round;">
<rect x="28000.000000" y="53100.000000" width="2000.000000" height="800.000000" rx="0.000000" />
</g>
<g style="fill:#840000; fill-opacity:0.0; 
stroke:#840000; stroke-width:60.000000; stroke-opacity:1; 
stroke-linecap:round; stroke-linejoin:round;">
<path d="M30000 53500
L30500 53500
" />
<path d="M28000 53500
L27500 53500
" />
</g>
<g style="fill:#006464; fill-opacity:0.0; 
stroke:#006464; stroke-width:60.000000; stroke-opacity:1; 
stroke-linecap:round; stroke-linejoin:round;">
<text x="29000.000000" y="54749.960630"
textLength="3155.236220" font-size="666.653543" lengthAdjust="spacingAndGlyphs"
text-anchor="middle" opacity="0">RCharge</text>
<g class="stroked-text"><desc>RCharge</desc>
<path d="M27857 54726
L27690 54488
" />
<path d="M27571 54726
L27571 54226
L27761 54226
L27809 54249
L27833 54273
L27857 54321
L27857 54392
L27833 54440
L27809 54464
L27761 54488
L27571 54488
" />
<path d="M28357 54678
L28333 54702
L28261 54726
L28214 54726
L28142 54702
L28095 54654
L28071 54607
L28047 54511
L28047 54440
L28071 54345
L28095 54297
L28142 54249
L28214 54226
L28261 54226
L28333 54249
L28357 54273
" />
<path d="M28571 54726
L28571 54226
" />
<path d="M28785 54726
L28785 54464
L28761 54416
L28714 54392
L28642 54392
L28595 54416
L28571 54440
" />
<path d="M29238 54726
L29238 54464
L29214 54416
L29166 54392
L29071 54392
L29023 54416
" />
<path d="M29238 54702
L29190 54726
L29071 54726
L29023 54702
L29000 54654
L29000 54607
L29023 54559
L29071 54535
L29190 54535
L29238 54511
" />
<path d="M29476 54726
L29476 54392
" />
<path d="M29476 54488
L29500 54440
L29523 54416
L29571 54392
L29619 54392
" />
<path d="M30000 54392
L30000 54797
L29976 54845
L29952 54868
L29904 54892
L29833 54892
L29785 54868
" />
<path d="M30000 54702
L29952 54726
L29857 54726
L29809 54702
L29785 54678
L29761 54630
L29761 54488
L29785 54440
L29809 54416
L29857 54392
L29952 54392
L30000 54416
" />
<path d="M30428 54702
L30380 54726
L30285 54726
L30238 54702
L30214 54654
L30214 54464
L30238 54416
L30285 54392
L30380 54392
L30428 54416
L30452 54464
L30452 54511
L30214 54559
" />
</g><text x="29000.000000" y="55652.480315"
textLength="1417.125984" font-size="666.653543" lengthAdjust="spacingAndGlyphs"
text-anchor="middle" opacity="0">56k</text>
<g class="stroked-text"><desc>56k</desc>
<path d="M28678 55128
L28440 55128
L28416 55366
L28440 55342
L28488 55319
L28607 55319
L28654 55342
L28678 55366
L28702 55414
L28702 55533
L28678 55581
L28654 55604
L28607 55628
L28488 55628
L28440 55604
L28416 55581
" />
<path d="M29130 55128
L29035 55128
L28988 55152
L28964 55176
L28916 55247
L28892 55342
L28892 55533
L28916 55581
L28940 55604
L28988 55628
L29083 55628
L29130 55604
L29154 55581
L29178 55533
L29178 55414
L29154 55366
L29130 55342
L29083 55319
L28988 55319
L28940 55342
L28916 55366
L28892 55414
" />
<path d="M29392 55628
L29392 55128
" />
<path d="M29440 55438
L29583 55628
" />
<path d="M29583 55295
L29392 55485
" />
</g></g>
</g>
<g style="fill:#006464; fill-opacity:0.0; 
stroke:#006464; stroke-width:60.000000; stroke-opacity:1; 
stroke-linecap:round; stroke-linejoin:round;">
<g >
</g>
<g style="fill:#840000; fill-opacity:0.0; 
stroke:#840000; stroke-width:60.000000; stroke-opacity:1; 
stroke-linecap:round; stroke-linejoin:round;">
</g>
<g style="fill:#FFFFC2; fill-opacity:0.0; 
stroke:#FFFFC2; stroke-width:60.000000; stroke-opacity:1; 
stroke-linecap:round; stroke-linejoin:round;">
</g>
<g style="fill:#FFFFC2; fill-opacity:0.6; 
stroke:#FFFFC2; stroke-width:0.039370; stroke-opacity:1; 
stroke-linecap:round; stroke-linejoin:round;">
<rect x="21500.000000" y="47500.000000" width="12000.000000" height="4000.000000" rx="0.000000" />
</g>
<g style="fill:#840000; fill-opacity:0.6; 
stroke:#840000; stroke-width:0.039370; stroke-opacity:1; 
stroke-linecap:round; stroke-linejoin:round;">
</g>
<g style="fill:#840000; fill-opacity:0.0; 
stroke:#840000; stroke-width:100.000000; stroke-opacity:1; 
stroke-linecap:round; stroke-linejoin:round;">
<rect x="21500.000000" y="47500.000000" width="12000.000000" height="4000.000000" rx="0.000000" />
<rect x="21500.000000" y="47500.000000" width="12000.000000" height="4000.000000" rx="0.000000" />
<rect x="22250.000000" y="48750.000000" width="2500.000000" height="1500.000000" rx="0.000000" />
<path style="fill:#840000; fill-opacity:0.0; 
stroke:#840000; stroke-width:100.000000; stroke-opacity:1; 
stroke-linecap:round; stroke-linejoin:round;fill:none"
d="M 22500.000000,48750.000000
24500.000000,50250.000000
" /> 
</g>
<g style="fill:#840000; fill-opacity:0.0; 
stroke:#840000; stroke-width:60.000000; stroke-opacity:1; 
stroke-linecap:round; stroke-linejoin:round;">
<path style="fill:#840000; fill-opacity:0.0; 
stroke:#840000; stroke-width:60.000000; stroke-opacity:1; 
stroke-linecap:round; stroke-linejoin:round;fill:none"
d="M 23500.000000,47500.000000
23500.000000,48750.000000
" /> 
<path style="fill:#840000; fill-opacity:0.0; 
stroke:#840000; stroke-width:60.000000; stroke-opacity:1; 
stroke-linecap:round; stroke-linejoin:round;fill:none"
d="M 23500.000000,51500.000000
23500.000000,50250.000000
" /> 
</g>
<g style="fill:#840000; fill-opacity:0.0; 
stroke:#840000; stroke-width:100.000000; stroke-opacity:1; 
stroke-linecap:round; stroke-linejoin:round;">
<path style="fill:#840000; fill-opacity:0.0; 
stroke:#840000; stroke-width:100.000000; stroke-opacity:1; 
stroke-linecap:round; stroke-linejoin:round;fill:none"
d="M 24750.000000,49500.000000
25000.000000,49500.000000
" /> 
<path style="fill:#840000; fill-opacity:0.0; 
stroke:#840000; stroke-width:100.000000; stroke-opacity:1; 
stroke-linecap:round; stroke-linejoin:round;fill:none"
d="M 25250.000000,49500.000000
25500.000000,49500.000000
" /> 
<path style="fill:#840000; fill-opacity:0.0; 
stroke:#840000; stroke-width:100.000000; stroke-opacity:1; 
stroke-linecap:round; stroke-linejoin:round;fill:none"
d="M 25750.000000,49500.000000
26000.000000,49500.000000
" /> 
<path style="fill:#840000; fill-opacity:0.0; 
stroke:#840000; stroke-width:100.000000; stroke-opacity:1; 
stroke-linecap:round; stroke-linejoin:round;fill:none"
d="M 26250.000000,49500.000000
26500.000000,49500.000000
" /> 
<path style="fill:#840000; fill-opacity:0.0; 
stroke:#840000; stroke-width:100.000000; stroke-opacity:1; 
stroke-linecap:round; stroke-linejoin:round;fill:none"
d="M 26750.000000,49500.000000
27000.000000,49500.000000
" /> 
<path style="fill:#840000; fill-opacity:0.0; 
stroke:#840000; stroke-width:100.000000; stroke-opacity:1; 
stroke-linecap:round; stroke-linejoin:round;fill:none"
d="M 27250.000000,49500.000000
27500.000000,49500.000000
" /> 
</g>
<g style="fill:#840000; fill-opacity:0.0; 
stroke:#840000; stroke-width:200.000000; stroke-opacity:1; 
stroke-linecap:round; stroke-linejoin:round;">
<path style="fill:#840000; fill-opacity:0.0; 
stroke:#840000; stroke-width:200.000000; stroke-opacity:1; 
stroke-linecap:round; stroke-linejoin:round;fill:none"
d="M 27500.000000,48500.000000
26750.000000,51000.000000
" /> 
</g>
<g style="fill:#840000; fill-opacity:0.0; 
stroke:#840000; stroke-width:60.000000; stroke-opacity:1; 
stroke-linecap:round; stroke-linejoin:round;">
<path style="fill:#840000; fill-opacity:0.0; 
stroke:#840000; stroke-width:60.000000; stroke-opacity:1; 
stroke-linecap:round; stroke-linejoin:round;fill:none"
d="M 27500.000000,48500.000000
27500.000000,47500.000000
" /> 
</g>
<g style="fill:#840000; fill-opacity:0.0; 
stroke:#840000; stroke-width:100.000000; stroke-opacity:1; 
stroke-linecap:round; stroke-linejoin:round;">
<path style="fill:#840000; fill-opacity:0.0; 
stroke:#840000; stroke-width:100.000000; stroke-opacity:1; 
stroke-linecap:round; stroke-linejoin:round;fill:none"
d="M 27750.000000,49500.000000
28000.000000,49500.000000
" /> 
<path style="fill:#840000; fill-opacity:0.0; 
stroke:#840000; stroke-width:100.000000; stroke-opacity:1; 
stroke-linecap:round; stroke-linejoin:round;fill:none"
d="M 28250.000000,49500.000000
28500.000000,49500.000000
" /> 
<path style="fill:#840000; fill-opacity:0.0; 
stroke:#840000; stroke-width:100.000000; stroke-opacity:1; 
stroke-linecap:round; stroke-linejoin:round;fill:none"
d="M 28750.000000,49500.000000
29000.000000,49500.000000
" /> 
<path style="fill:#840000; fill-opacity:0.0; 
stroke:#840000; stroke-width:100.000000; stroke-opacity:1; 
stroke-linecap:round; stroke-linejoin:round;fill:none"
d="M 29250.000000,49500.000000
29500.000000,49500.000000
" /> 
<path style="fill:#840000; fill-opacity:0.0; 
stroke:#840000; stroke-width:100.000000; stroke-opacity:1; 
stroke-linecap:round; stroke-linejoin:round;fill:none"
d="M 29750.000000,49500.000000
30000.000000,49500.000000
" /> 
<path style="fill:#840000; fill-opacity:0.0; 
stroke:#840000; stroke-width:100.000000; stroke-opacity:1; 
stroke-linecap:round; stroke-linejoin:round;fill:none"
d="M 30250.000000,49500.000000
30500.000000,49500.000000
" /> 
<path style="fill:#840000; fill-opacity:0.0; 
stroke:#840000; stroke-width:100.000000; stroke-opacity:1; 
stroke-linecap:round; stroke-linejoin:round;fill:none"
d="M 30750.000000,49500.000000
31000.000000,49500.000000
" /> 
</g>
<g style="fill:#840000; fill-opacity:0.0; 
stroke:#840000; stroke-width:200.000000; stroke-opacity:1; 
stroke-linecap:round; stroke-linejoin:round;">
<path style="fill:#840000; fill-opacity:0.0; 
stroke:#840000; stroke-width:200.000000; stroke-opacity:1; 
stroke-linecap:round; stroke-linejoin:round;fill:none"
d="M 31500.000000,48500.000000
30750.000000,51000.000000
" /> 
</g>
<g style="fill:#840000; fill-opacity:0.0; 
stroke:#840000; stroke-width:60.000000; stroke-opacity:1; 
stroke-linecap:round; stroke-linejoin:round;">
<path style="fill:#840000; fill-opacity:0.0; 
stroke:#840000; stroke-width:60.000000; stroke-opacity:1; 
stroke-linecap:round; stroke-linejoin:round;fill:none"
d="M 31500.000000,48500.000000
31500.000000,47500.000000
" /> 
</g>
<g style="fill:#840000; fill-opacity:1.0; 
stroke:#840000; stroke-width:60.000000; stroke-opacity:1; 
stroke-linecap:round; stroke-linejoin:round;">
<path style="fill:#840000; fill-opacity:1.0; 
stroke:#840000; stroke-width:60.000000; stroke-opacity:1; 
stroke-linecap:round; stroke-linejoin:round;fill-rule:evenodd;"
d="M 26500.000000,51500.000000
26500.000000,50500.000000
26750.000000,50750.000000
26500.000000,51000.000000
" /> 
</g>
<g style="fill:#840000; fill-opacity:0.0; 
stroke:#840000; stroke-width:60.000000; stroke-opacity:1; 
stroke-linecap:round; stroke-linejoin:round;">
<path style="fill:#840000; fill-opacity:0.0; 
stroke:#840000; stroke-width:60.000000; stroke-opacity:1; 
stroke-linecap:round; stroke-linejoin:round;fill:none"
d="M 28500.000000,51500.000000
28500.000000,50500.000000
28250.000000,50750.000000
28500.000000,51000.000000
" /> 
</g>
<g style="fill:#840000; fill-opacity:1.0; 
stroke:#840000; stroke-width:60.000000; stroke-opacity:1; 
stroke-linecap:round; stroke-linejoin:round;">
<path style="fill:#840000; fill-opacity:1.0; 
stroke:#840000; stroke-width:60.000000; stroke-opacity:1; 
stroke-linecap:round; stroke-linejoin:round;fill-rule:evenodd;"
d="M 30500.000000,51500.000000
30500.000000,50500.000000
30750.000000,50750.000000
30500.000000,51000.000000
" /> 
</g>
<g style="fill:#840000; fill-opacity:0.0; 
stroke:#840000; stroke-width:60.000000; stroke-opacity:1; 
stroke-linecap:round; stroke-linejoin:round;">
<path style="fill:#840000; fill-opacity:0.0; 
stroke:#840000; stroke-width:60.000000; stroke-opacity:1; 
stroke-linecap:round; stroke-linejoin:round;fill:none"
d="M 32500.000000,51500.000000
32500.000000,50500.000000
32250.000000,50750.000000
32500.000000,51000.000000
" /> 
</g>
<g style="fill:#840000; fill-opacity:0.0; 
stroke:#840000; stroke-width:62.519685; stroke-opacity:1; 
stroke-linecap:round; stroke-linejoin:round;">
<text x="23850.000000" y="50900.000000"
textLength="679.055118" font-size="666.653543" lengthAdjust="spacingAndGlyphs"
text-anchor="middle" opacity="0">+</text>
<g class="stroked-text"><desc>+</desc>
<path d="M23659 50685
L24040 50685
" />
<path d="M23850 50876
L23850 50495
" />
</g></g>
<g style="fill:#840000; fill-opacity:0.0; 
stroke:#840000; stroke-width:60.000000; stroke-opacity:1; 
stroke-linecap:round; stroke-linejoin:round;">
<path d="M23500 51500
L23500 52500
" />
<path d="M30500 51500
L30500 52500
" />
<path d="M23500 47500
L23500 46500
" />
<path d="M26500 51500
L26500 52500
" />
<path d="M27500 47500
L27500 46500
" />
<path d="M28500 51500
L28500 52500
" />
<path d="M32500 51500
L32500 52500
" />
<path d="M31500 47500
L31500 46500
" />
</g>
</g>
<g style="fill:#840000; fill-opacity:0.0; 
stroke:#840000; stroke-width:62.519685; stroke-opacity:1; 
stroke-linecap:round; stroke-linejoin:round;">
</g>
<g style="fill:#840000; fill-opacity:0.0; 
stroke:#840000; stroke-width:60.000000; stroke-opacity:1; 
stroke-linecap:round; stroke-linejoin:round;">
<g transform="rotate(-90.000000 34535.748031 56687.519685)">
<text x="34535.748031" y="56937.519685"
textLength="967.283465" font-size="666.653543" lengthAdjust="spacingAndGlyphs"
text-anchor="end" opacity="0">5V</text>
</g>
<g class="stroked-text"><desc>5V</desc>
<path d="M34261 57265
L34261 57503
L34500 57527
L34476 57503
L34452 57455
L34452 57336
L34476 57288
L34500 57265
L34547 57241
L34666 57241
L34714 57265
L34738 57288
L34761 57336
L34761 57455
L34738 57503
L34714 57527
" />
<path d="M34261 57098
L34761 56931
L34261 56765
" />
</g><path style="fill:#840000; fill-opacity:0.0; 
stroke:#840000; stroke-width:60.000000; stroke-opacity:1; 
stroke-linecap:round; stroke-linejoin:round;fill:none"
d="M 34500.000000,56500.000000
33999.842520,56500.000000
33999.842520,57904.960630
34500.000000,58342.480315
35000.157480,57904.960630
35000.157480,56500.000000
Z" /> 
</g>
<g style="fill:#840000; fill-opacity:0.0; 
stroke:#840000; stroke-width:62.519685; stroke-opacity:1; 
stroke-linecap:round; stroke-linejoin:round;">
</g>
<g style="fill:#840000; fill-opacity:0.0; 
stroke:#840000; stroke-width:60.000000; stroke-opacity:1; 
stroke-linecap:round; stroke-linejoin:round;">
<g transform="rotate(-90.000000 32035.748031 40437.480315)">
<text x="32035.748031" y="40687.480315"
textLength="1181.574803" font-size="666.653543" lengthAdjust="spacingAndGlyphs"
text-anchor="start" opacity="0">D+</text>
</g>
<g class="stroked-text"><desc>D+</desc>
<path d="M32261 40288
L31761 40288
L31761 40169
L31785 40097
L31833 40050
L31880 40026
L31976 40002
L32047 40002
L32142 40026
L32190 40050
L32238 40097
L32261 40169
L32261 40288
" />
<path d="M32071 39788
L32071 39407
" />
<path d="M32261 39597
L31880 39597
" />
</g><path style="fill:#840000; fill-opacity:0.0; 
stroke:#840000; stroke-width:60.000000; stroke-opacity:1; 
stroke-linecap:round; stroke-linejoin:round;fill:none"
d="M 32000.000000,41000.000000
32500.157480,40562.480315
32500.157480,38943.228346
32000.000000,38505.708661
31499.842520,38943.228346
31499.842520,40562.480315
Z" /> 
</g>
<g style="fill:#840000; fill-opacity:0.0; 
stroke:#840000; stroke-width:62.519685; stroke-opacity:1; 
stroke-linecap:round; stroke-linejoin:round;">
</g>
<g style="fill:#840000; fill-opacity:0.0; 
stroke:#840000; stroke-width:60.000000; stroke-opacity:1; 
stroke-linecap:round; stroke-linejoin:round;">
<text x="17937.480315" y="44785.748031"
textLength="967.283465" font-size="666.653543" lengthAdjust="spacingAndGlyphs"
text-anchor="end" opacity="0">5V</text>
<g class="stroked-text"><desc>5V</desc>
<path d="M17359 44261
L17121 44261
L17097 44500
L17121 44476
L17169 44452
L17288 44452
L17336 44476
L17359 44500
L17383 44547
L17383 44666
L17359 44714
L17336 44738
L17288 44761
L17169 44761
L17121 44738
L17097 44714
" />
<path d="M17526 44261
L17693 44761
L17859 44261
" />
</g><path style="fill:#840000; fill-opacity:0.0; 
stroke:#840000; stroke-width:60.000000; stroke-opacity:1; 
stroke-linecap:round; stroke-linejoin:round;fill:none"
d="M 18500.000000,44500.000000
18062.480315,43999.842520
16657.519685,43999.842520
16657.519685,44500.000000
16657.519685,45000.157480
18062.480315,45000.157480
Z" /> 
</g>
<g style="fill:#840000; fill-opacity:0.0; 
stroke:#840000; stroke-width:62.519685; stroke-opacity:1; 
stroke-linecap:round; stroke-linejoin:round;">
</g>
<g style="fill:#840000; fill-opacity:0.0; 
stroke:#840000; stroke-width:60.000000; stroke-opacity:1; 
stroke-linecap:round; stroke-linejoin:round;">
<g transform="rotate(-90.000000 26035.748031 40937.480315)">
<text x="26035.748031" y="41187.480315"
textLength="1467.283465" font-size="666.653543" lengthAdjust="spacingAndGlyphs"
text-anchor="start" opacity="0">Gnd</text>
</g>
<g class="stroked-text"><desc>Gnd</desc>
<path d="M25785 40526
L25761 40574
L25761 40645
L25785 40716
L25833 40764
L25880 40788
L25976 40812
L26047 40812
L26142 40788
L26190 40764
L26238 40716
L26261 40645
L26261 40597
L26238 40526
L26214 40502
L26047 40502
L26047 40597
" />
<path d="M25928 40288
L26261 40288
" />
<path d="M25976 40288
L25952 40264
L25928 40216
L25928 40145
L25952 40097
L26000 40074
L26261 40074
" />
<path d="M26261 39621
L25761 39621
" />
<path d="M26238 39621
L26261 39669
L26261 39764
L26238 39812
L26214 39836
L26166 39859
L26023 39859
L25976 39836
L25952 39812
L25928 39764
L25928 39669
L25952 39621
" />
</g><path style="fill:#840000; fill-opacity:0.0; 
stroke:#840000; stroke-width:60.000000; stroke-opacity:1; 
stroke-linecap:round; stroke-linejoin:round;fill:none"
d="M 26000.000000,41500.000000
26500.157480,41062.480315
26500.157480,39157.519685
26000.000000,38720.000000
25499.842520,39157.519685
25499.842520,41062.480315
Z" /> 
</g>
<g style="fill:#840000; fill-opacity:0.0; 
stroke:#840000; stroke-width:62.519685; stroke-opacity:1; 
stroke-linecap:round; stroke-linejoin:round;">
</g>
<g style="fill:#840000; fill-opacity:0.0; 
stroke:#840000; stroke-width:60.000000; stroke-opacity:1; 
stroke-linecap:round; stroke-linejoin:round;">
<g transform="rotate(-90.000000 27535.748031 42937.480315)">
<text x="27535.748031" y="43187.480315"
textLength="3633.937008" font-size="666.653543" lengthAdjust="spacingAndGlyphs"
text-anchor="start" opacity="0">PD Sense</text>
</g>
<g class="stroked-text"><desc>PD Sense</desc>
<path d="M27761 42788
L27261 42788
L27261 42597
L27285 42550
L27309 42526
L27357 42502
L27428 42502
L27476 42526
L27500 42550
L27523 42597
L27523 42788
" />
<path d="M27761 42288
L27261 42288
L27261 42169
L27285 42097
L27333 42050
L27380 42026
L27476 42002
L27547 42002
L27642 42026
L27690 42050
L27738 42097
L27761 42169
L27761 42288
" />
<path d="M27738 41431
L27761 41359
L27761 41240
L27738 41193
L27714 41169
L27666 41145
L27619 41145
L27571 41169
L27547 41193
L27523 41240
L27500 41336
L27476 41383
L27452 41407
L27404 41431
L27357 41431
L27309 41407
L27285 41383
L27261 41336
L27261 41216
L27285 41145
" />
<path d="M27738 40740
L27761 40788
L27761 40883
L27738 40931
L27690 40955
L27500 40955
L27452 40931
L27428 40883
L27428 40788
L27452 40740
L27500 40716
L27547 40716
L27595 40955
" />
<path d="M27428 40502
L27761 40502
" />
<path d="M27476 40502
L27452 40478
L27428 40431
L27428 40359
L27452 40312
L27500 40288
L27761 40288
" />
<path d="M27738 40074
L27761 40026
L27761 39931
L27738 39883
L27690 39859
L27666 39859
L27619 39883
L27595 39931
L27595 40002
L27571 40050
L27523 40074
L27500 40074
L27452 40050
L27428 40002
L27428 39931
L27452 39883
" />
<path d="M27738 39455
L27761 39502
L27761 39597
L27738 39645
L27690 39669
L27500 39669
L27452 39645
L27428 39597
L27428 39502
L27452 39455
L27500 39431
L27547 39431
L27595 39669
" />
</g><path style="fill:#840000; fill-opacity:0.0; 
stroke:#840000; stroke-width:60.000000; stroke-opacity:1; 
stroke-linecap:round; stroke-linejoin:round;fill:none"
d="M 27500.000000,43500.000000
28000.157480,43062.480315
28000.157480,38990.866142
27500.000000,38553.346457
26999.842520,38990.866142
26999.842520,43062.480315
Z" /> 
</g>
<g style="fill:#840000; fill-opacity:0.0; 
stroke:#840000; stroke-width:62.519685; stroke-opacity:1; 
stroke-linecap:round; stroke-linejoin:round;">
</g>
<g style="fill:#840000; fill-opacity:0.0; 
stroke:#840000; stroke-width:60.000000; stroke-opacity:1; 
stroke-linecap:round; stroke-linejoin:round;">
<g transform="rotate(-90.000000 30535.748031 40437.480315)">
<text x="30535.748031" y="40687.480315"
textLength="1181.574803" font-size="666.653543" lengthAdjust="spacingAndGlyphs"
text-anchor="start" opacity="0">D-</text>
</g>
<g class="stroked-text"><desc>D-</desc>
<path d="M30761 40288
L30261 40288
L30261 40169
L30285 40097
L30333 40050
L30380 40026
L30476 40002
L30547 40002
L30642 40026
L30690 40050
L30738 40097
L30761 40169
L30761 40288
" />
<path d="M30571 39788
L30571 39407
" />
</g><path style="fill:#840000; fill-opacity:0.0; 
stroke:#840000; stroke-width:60.000000; stroke-opacity:1; 
stroke-linecap:round; stroke-linejoin:round;fill:none"
d="M 30500.000000,41000.000000
31000.157480,40562.480315
31000.157480,38943.228346
30500.000000,38505.708661
29999.842520,38943.228346
29999.842520,40562.480315
Z" /> 
</g>
<g style="fill:#840000; fill-opacity:0.0; 
stroke:#840000; stroke-width:62.519685; stroke-opacity:1; 
stroke-linecap:round; stroke-linejoin:round;">
</g>
<g style="fill:#840000; fill-opacity:0.0; 
stroke:#840000; stroke-width:60.000000; stroke-opacity:1; 
stroke-linecap:round; stroke-linejoin:round;">
<g transform="rotate(-90.000000 29035.748031 40437.480315)">
<text x="29035.748031" y="40687.480315"
textLength="967.283465" font-size="666.653543" lengthAdjust="spacingAndGlyphs"
text-anchor="start" opacity="0">5V</text>
</g>
<g class="stroked-text"><desc>5V</desc>
<path d="M28761 40050
L28761 40288
L29000 40312
L28976 40288
L28952 40240
L28952 40121
L28976 40074
L29000 40050
L29047 40026
L29166 40026
L29214 40050
L29238 40074
L29261 40121
L29261 40240
L29238 40288
L29214 40312
" />
<path d="M28761 39883
L29261 39716
L28761 39550
" />
</g><path style="fill:#840000; fill-opacity:0.0; 
stroke:#840000; stroke-width:60.000000; stroke-opacity:1; 
stroke-linecap:round; stroke-linejoin:round;fill:none"
d="M 29000.000000,41000.000000
29500.157480,40562.480315
29500.157480,39157.519685
29000.000000,38720.000000
28499.842520,39157.519685
28499.842520,40562.480315
Z" /> 
</g>
<g style="fill:#840000; fill-opacity:0.0; 
stroke:#840000; stroke-width:62.519685; stroke-opacity:1; 
stroke-linecap:round; stroke-linejoin:round;">
</g>
<g style="fill:#840000; fill-opacity:0.0; 
stroke:#840000; stroke-width:60.000000; stroke-opacity:1; 
stroke-linecap:round; stroke-linejoin:round;">
<text x="17937.480315" y="46285.748031"
textLength="1467.283465" font-size="666.653543" lengthAdjust="spacingAndGlyphs"
text-anchor="end" opacity="0">Gnd</text>
<g class="stroked-text"><desc>Gnd</desc>
<path d="M16883 45785
L16836 45761
L16764 45761
L16693 45785
L16645 45833
L16621 45880
L16597 45976
L16597 46047
L16621 46142
L16645 46190
L16693 46238
L16764 46261
L16812 46261
L16883 46238
L16907 46214
L16907 46047
L16812 46047
" />
<path d="M17121 45928
L17121 46261
" />
<path d="M17121 45976
L17145 45952
L17193 45928
L17264 45928
L17312 45952
L17336 46000
L17336 46261
" />
<path d="M17788 46261
L17788 45761
" />
<path d="M17788 46238
L17740 46261
L17645 46261
L17597 46238
L17574 46214
L17550 46166
L17550 46023
L17574 45976
L17597 45952
L17645 45928
L17740 45928
L17788 45952
" />
</g><path style="fill:#840000; fill-opacity:0.0; 
stroke:#840000; stroke-width:60.000000; stroke-opacity:1; 
stroke-linecap:round; stroke-linejoin:round;fill:none"
d="M 18500.000000,46000.000000
18062.480315,45499.842520
16157.519685,45499.842520
16157.519685,46000.000000
16157.519685,46500.157480
18062.480315,46500.157480
Z" /> 
</g>
<g style="fill:#840000; fill-opacity:0.0; 
stroke:#840000; stroke-width:62.519685; stroke-opacity:1; 
stroke-linecap:round; stroke-linejoin:round;">
</g>
<g style="fill:#840000; fill-opacity:0.0; 
stroke:#840000; stroke-width:60.000000; stroke-opacity:1; 
stroke-linecap:round; stroke-linejoin:round;">
<text x="17937.480315" y="51785.748031"
textLength="1467.283465" font-size="666.653543" lengthAdjust="spacingAndGlyphs"
text-anchor="end" opacity="0">Gnd</text>
<g class="stroked-text"><desc>Gnd</desc>
<path d="M16883 51285
L16836 51261
L16764 51261
L16693 51285
L16645 51333
L16621 51380
L16597 51476
L16597 51547
L16621 51642
L16645 51690
L16693 51738
L16764 51761
L16812 51761
L16883 51738
L16907 51714
L16907 51547
L16812 51547
" />
<path d="M17121 51428
L17121 51761
" />
<path d="M17121 51476
L17145 51452
L17193 51428
L17264 51428
L17312 51452
L17336 51500
L17336 51761
" />
<path d="M17788 51761
L17788 51261
" />
<path d="M17788 51738
L17740 51761
L17645 51761
L17597 51738
L17574 51714
L17550 51666
L17550 51523
L17574 51476
L17597 51452
L17645 51428
L17740 51428
L17788 51452
" />
</g><path style="fill:#840000; fill-opacity:0.0; 
stroke:#840000; stroke-width:60.000000; stroke-opacity:1; 
stroke-linecap:round; stroke-linejoin:round;fill:none"
d="M 18500.000000,51500.000000
18062.480315,50999.842520
16157.519685,50999.842520
16157.519685,51500.000000
16157.519685,52000.157480
18062.480315,52000.157480
Z" /> 
</g>
<g style="fill:#840000; fill-opacity:0.0; 
stroke:#840000; stroke-width:62.519685; stroke-opacity:1; 
stroke-linecap:round; stroke-linejoin:round;">
</g>
<g style="fill:#840000; fill-opacity:0.0; 
stroke:#840000; stroke-width:60.000000; stroke-opacity:1; 
stroke-linecap:round; stroke-linejoin:round;">
<text x="17937.480315" y="53285.748031"
textLength="5157.755906" font-size="666.653543" lengthAdjust="spacingAndGlyphs"
text-anchor="end" opacity="0">Reverse Light</text>
<g class="stroked-text"><desc>Reverse Light</desc>
<path d="M13216 53261
L13050 53023
" />
<path d="M12931 53261
L12931 52761
L13121 52761
L13169 52785
L13193 52809
L13216 52857
L13216 52928
L13193 52976
L13169 53000
L13121 53023
L12931 53023
" />
<path d="M13621 53238
L13574 53261
L13478 53261
L13431 53238
L13407 53190
L13407 53000
L13431 52952
L13478 52928
L13574 52928
L13621 52952
L13645 53000
L13645 53047
L13407 53095
" />
<path d="M13812 52928
L13931 53261
L14050 52928
" />
<path d="M14431 53238
L14383 53261
L14288 53261
L14240 53238
L14216 53190
L14216 53000
L14240 52952
L14288 52928
L14383 52928
L14431 52952
L14455 53000
L14455 53047
L14216 53095
" />
<path d="M14669 53261
L14669 52928
" />
<path d="M14669 53023
L14693 52976
L14716 52952
L14764 52928
L14812 52928
" />
<path d="M14955 53238
L15002 53261
L15097 53261
L15145 53238
L15169 53190
L15169 53166
L15145 53119
L15097 53095
L15026 53095
L14978 53071
L14955 53023
L14955 53000
L14978 52952
L15026 52928
L15097 52928
L15145 52952
" />
<path d="M15574 53238
L15526 53261
L15431 53261
L15383 53238
L15359 53190
L15359 53000
L15383 52952
L15431 52928
L15526 52928
L15574 52952
L15597 53000
L15597 53047
L15359 53095
" />
<path d="M16431 53261
L16193 53261
L16193 52761
" />
<path d="M16597 53261
L16597 52928
" />
<path d="M16597 52761
L16574 52785
L16597 52809
L16621 52785
L16597 52761
L16597 52809
" />
<path d="M17050 52928
L17050 53333
L17026 53380
L17002 53404
L16955 53428
L16883 53428
L16836 53404
" />
<path d="M17050 53238
L17002 53261
L16907 53261
L16859 53238
L16836 53214
L16812 53166
L16812 53023
L16836 52976
L16859 52952
L16907 52928
L17002 52928
L17050 52952
" />
<path d="M17288 53261
L17288 52761
" />
<path d="M17502 53261
L17502 53000
L17478 52952
L17431 52928
L17359 52928
L17312 52952
L17288 52976
" />
<path d="M17669 52928
L17859 52928
" />
<path d="M17740 52761
L17740 53190
L17764 53238
L17812 53261
L17859 53261
" />
</g><path style="fill:#840000; fill-opacity:0.0; 
stroke:#840000; stroke-width:60.000000; stroke-opacity:1; 
stroke-linecap:round; stroke-linejoin:round;fill:none"
d="M 18500.000000,53000.000000
18062.480315,52499.842520
12467.047244,52499.842520
12467.047244,53000.000000
12467.047244,53500.157480
18062.480315,53500.157480
Z" /> 
</g>
<g style="fill:#840000; fill-opacity:0.0; 
stroke:#840000; stroke-width:62.519685; stroke-opacity:1; 
stroke-linecap:round; stroke-linejoin:round;">
</g>
<g style="fill:#840000; fill-opacity:0.0; 
stroke:#840000; stroke-width:60.000000; stroke-opacity:1; 
stroke-linecap:round; stroke-linejoin:round;">
<g transform="rotate(-90.000000 33035.748031 56687.519685)">
<text x="33035.748031" y="56937.519685"
textLength="1467.283465" font-size="666.653543" lengthAdjust="spacingAndGlyphs"
text-anchor="end" opacity="0">Gnd</text>
</g>
<g class="stroked-text"><desc>Gnd</desc>
<path d="M32785 57741
L32761 57788
L32761 57860
L32785 57931
L32833 57979
L32880 58003
L32976 58027
L33047 58027
L33142 58003
L33190 57979
L33238 57931
L33261 57860
L33261 57812
L33238 57741
L33214 57717
L33047 57717
L33047 57812
" />
<path d="M32928 57503
L33261 57503
" />
<path d="M32976 57503
L32952 57479
L32928 57431
L32928 57360
L32952 57312
L33000 57288
L33261 57288
" />
<path d="M33261 56836
L32761 56836
" />
<path d="M33238 56836
L33261 56884
L33261 56979
L33238 57027
L33214 57050
L33166 57074
L33023 57074
L32976 57050
L32952 57027
L32928 56979
L32928 56884
L32952 56836
" />
</g><path style="fill:#840000; fill-opacity:0.0; 
stroke:#840000; stroke-width:60.000000; stroke-opacity:1; 
stroke-linecap:round; stroke-linejoin:round;fill:none"
d="M 33000.000000,56500.000000
32499.842520,56500.000000
32499.842520,58404.960630
33000.000000,58842.480315
33500.157480,58404.960630
33500.157480,56500.000000
Z" /> 
</g>
<g style="fill:#840000; fill-opacity:0.0; 
stroke:#840000; stroke-width:62.519685; stroke-opacity:1; 
stroke-linecap:round; stroke-linejoin:round;">
</g>
<g style="fill:#840000; fill-opacity:0.0; 
stroke:#840000; stroke-width:60.000000; stroke-opacity:1; 
stroke-linecap:round; stroke-linejoin:round;">
<g transform="rotate(-90.000000 37535.748031 56687.519685)">
<text x="37535.748031" y="56937.519685"
textLength="1181.574803" font-size="666.653543" lengthAdjust="spacingAndGlyphs"
text-anchor="end" opacity="0">D+</text>
</g>
<g class="stroked-text"><desc>D+</desc>
<path d="M37761 57717
L37261 57717
L37261 57598
L37285 57527
L37333 57479
L37380 57455
L37476 57431
L37547 57431
L37642 57455
L37690 57479
L37738 57527
L37761 57598
L37761 57717
" />
<path d="M37571 57217
L37571 56836
" />
<path d="M37761 57027
L37380 57027
" />
</g><path style="fill:#840000; fill-opacity:0.0; 
stroke:#840000; stroke-width:60.000000; stroke-opacity:1; 
stroke-linecap:round; stroke-linejoin:round;fill:none"
d="M 37500.000000,56500.000000
36999.842520,56500.000000
36999.842520,58119.251969
37500.000000,58556.771654
38000.157480,58119.251969
38000.157480,56500.000000
Z" /> 
</g>
<g style="fill:#840000; fill-opacity:0.0; 
stroke:#840000; stroke-width:62.519685; stroke-opacity:1; 
stroke-linecap:round; stroke-linejoin:round;">
</g>
<g style="fill:#840000; fill-opacity:0.0; 
stroke:#840000; stroke-width:60.000000; stroke-opacity:1; 
stroke-linecap:round; stroke-linejoin:round;">
<g transform="rotate(-90.000000 36035.748031 56687.519685)">
<text x="36035.748031" y="56937.519685"
textLength="1181.574803" font-size="666.653543" lengthAdjust="spacingAndGlyphs"
text-anchor="end" opacity="0">D-</text>
</g>
<g class="stroked-text"><desc>D-</desc>
<path d="M36261 57717
L35761 57717
L35761 57598
L35785 57527
L35833 57479
L35880 57455
L35976 57431
L36047 57431
L36142 57455
L36190 57479
L36238 57527
L36261 57598
L36261 57717
" />
<path d="M36071 57217
L36071 56836
" />
</g><path style="fill:#840000; fill-opacity:0.0; 
stroke:#840000; stroke-width:60.000000; stroke-opacity:1; 
stroke-linecap:round; stroke-linejoin:round;fill:none"
d="M 36000.000000,56500.000000
35499.842520,56500.000000
35499.842520,58119.251969
36000.000000,58556.771654
36500.157480,58119.251969
36500.157480,56500.000000
Z" /> 
</g>
<g style="fill:#840000; fill-opacity:0.0; 
stroke:#840000; stroke-width:62.519685; stroke-opacity:1; 
stroke-linecap:round; stroke-linejoin:round;">
</g>
<g style="fill:#840000; fill-opacity:0.0; 
stroke:#840000; stroke-width:60.000000; stroke-opacity:1; 
stroke-linecap:round; stroke-linejoin:round;">
</g>
<g style="fill:#0000C2; fill-opacity:0.0; 
stroke:#0000C2; stroke-width:60.000000; stroke-opacity:1; 
stroke-linecap:round; stroke-linejoin:round;">
<text x="16000.000000" y="45362.480315"
textLength="2967.283465" font-size="666.653543" lengthAdjust="spacingAndGlyphs"
text-anchor="end" opacity="0">Charger</text>
<g class="stroked-text"><desc>Charger</desc>
<path d="M13470 45291
L13446 45314
L13374 45338
L13327 45338
L13255 45314
L13208 45267
L13184 45219
L13160 45124
L13160 45052
L13184 44957
L13208 44910
L13255 44862
L13327 44838
L13374 44838
L13446 44862
L13470 44886
" />
<path d="M13684 45338
L13684 44838
" />
<path d="M13898 45338
L13898 45076
L13874 45029
L13827 45005
L13755 45005
L13708 45029
L13684 45052
" />
<path d="M14350 45338
L14350 45076
L14327 45029
L14279 45005
L14184 45005
L14136 45029
" />
<path d="M14350 45314
L14303 45338
L14184 45338
L14136 45314
L14112 45267
L14112 45219
L14136 45171
L14184 45148
L14303 45148
L14350 45124
" />
<path d="M14589 45338
L14589 45005
" />
<path d="M14589 45100
L14612 45052
L14636 45029
L14684 45005
L14731 45005
" />
<path d="M15112 45005
L15112 45410
L15089 45457
L15065 45481
L15017 45505
L14946 45505
L14898 45481
" />
<path d="M15112 45314
L15065 45338
L14970 45338
L14922 45314
L14898 45291
L14874 45243
L14874 45100
L14898 45052
L14922 45029
L14970 45005
L15065 45005
L15112 45029
" />
<path d="M15541 45314
L15493 45338
L15398 45338
L15350 45314
L15327 45267
L15327 45076
L15350 45029
L15398 45005
L15493 45005
L15541 45029
L15565 45076
L15565 45124
L15327 45171
" />
<path d="M15779 45338
L15779 45005
" />
<path d="M15779 45100
L15803 45052
L15827 45029
L15874 45005
L15922 45005
" />
</g></g>
<g style="fill:#0000C2; fill-opacity:0.0; 
stroke:#0000C2; stroke-width:62.519685; stroke-opacity:1; 
stroke-linecap:round; stroke-linejoin:round;">
</g>
<g style="fill:#0000C2; fill-opacity:0.0; 
stroke:#0000C2; stroke-width:60.000000; stroke-opacity:1; 
stroke-linecap:round; stroke-linejoin:round;">
<text x="16000.000000" y="58362.480315"
textLength="15893.346457" font-size="666.653543" lengthAdjust="spacingAndGlyphs"
text-anchor="start" opacity="0">USB Host Connector (to USB Video Card)</text>
<g class="stroked-text"><desc>USB Host Connector (to USB Video Card)</desc>
<path d="M16149 57838
L16149 58243
L16172 58291
L16196 58314
L16244 58338
L16339 58338
L16387 58314
L16410 58291
L16434 58243
L16434 57838
" />
<path d="M16649 58314
L16720 58338
L16839 58338
L16887 58314
L16910 58291
L16934 58243
L16934 58195
L16910 58148
L16887 58124
L16839 58100
L16744 58076
L16696 58052
L16672 58029
L16649 57981
L16649 57933
L16672 57886
L16696 57862
L16744 57838
L16863 57838
L16934 57862
" />
<path d="M17315 58076
L17387 58100
L17410 58124
L17434 58171
L17434 58243
L17410 58291
L17387 58314
L17339 58338
L17149 58338
L17149 57838
L17315 57838
L17363 57862
L17387 57886
L17410 57933
L17410 57981
L17387 58029
L17363 58052
L17315 58076
L17149 58076
" />
<path d="M18030 58338
L18030 57838
" />
<path d="M18030 58076
L18315 58076
" />
<path d="M18315 58338
L18315 57838
" />
<path d="M18625 58338
L18577 58314
L18553 58291
L18530 58243
L18530 58100
L18553 58052
L18577 58029
L18625 58005
L18696 58005
L18744 58029
L18768 58052
L18791 58100
L18791 58243
L18768 58291
L18744 58314
L18696 58338
L18625 58338
" />
<path d="M18982 58314
L19030 58338
L19125 58338
L19172 58314
L19196 58267
L19196 58243
L19172 58195
L19125 58171
L19053 58171
L19006 58148
L18982 58100
L18982 58076
L19006 58029
L19053 58005
L19125 58005
L19172 58029
" />
<path d="M19339 58005
L19530 58005
" />
<path d="M19410 57838
L19410 58267
L19434 58314
L19482 58338
L19530 58338
" />
<path d="M20363 58291
L20339 58314
L20268 58338
L20220 58338
L20149 58314
L20101 58267
L20077 58219
L20053 58124
L20053 58052
L20077 57957
L20101 57910
L20149 57862
L20220 57838
L20268 57838
L20339 57862
L20363 57886
" />
<path d="M20649 58338
L20601 58314
L20577 58291
L20553 58243
L20553 58100
L20577 58052
L20601 58029
L20649 58005
L20720 58005
L20768 58029
L20791 58052
L20815 58100
L20815 58243
L20791 58291
L20768 58314
L20720 58338
L20649 58338
" />
<path d="M21030 58005
L21030 58338
" />
<path d="M21030 58052
L21053 58029
L21101 58005
L21172 58005
L21220 58029
L21244 58076
L21244 58338
" />
<path d="M21482 58005
L21482 58338
" />
<path d="M21482 58052
L21506 58029
L21553 58005
L21625 58005
L21672 58029
L21696 58076
L21696 58338
" />
<path d="M22125 58314
L22077 58338
L21982 58338
L21934 58314
L21910 58267
L21910 58076
L21934 58029
L21982 58005
L22077 58005
L22125 58029
L22149 58076
L22149 58124
L21910 58171
" />
<path d="M22577 58314
L22530 58338
L22434 58338
L22387 58314
L22363 58291
L22339 58243
L22339 58100
L22363 58052
L22387 58029
L22434 58005
L22530 58005
L22577 58029
" />
<path d="M22720 58005
L22910 58005
" />
<path d="M22791 57838
L22791 58267
L22815 58314
L22863 58338
L22910 58338
" />
<path d="M23149 58338
L23101 58314
L23077 58291
L23053 58243
L23053 58100
L23077 58052
L23101 58029
L23149 58005
L23220 58005
L23268 58029
L23291 58052
L23315 58100
L23315 58243
L23291 58291
L23268 58314
L23220 58338
L23149 58338
" />
<path d="M23530 58338
L23530 58005
" />
<path d="M23530 58100
L23553 58052
L23577 58029
L23625 58005
L23672 58005
" />
<path d="M24363 58529
L24339 58505
L24291 58433
L24268 58386
L24244 58314
L24220 58195
L24220 58100
L24244 57981
L24268 57910
L24291 57862
L24339 57791
L24363 57767
" />
<path d="M24482 58005
L24672 58005
" />
<path d="M24553 57838
L24553 58267
L24577 58314
L24625 58338
L24672 58338
" />
<path d="M24910 58338
L24863 58314
L24839 58291
L24815 58243
L24815 58100
L24839 58052
L24863 58029
L24910 58005
L24982 58005
L25030 58029
L25053 58052
L25077 58100
L25077 58243
L25053 58291
L25030 58314
L24982 58338
L24910 58338
" />
<path d="M25672 57838
L25672 58243
L25696 58291
L25720 58314
L25768 58338
L25863 58338
L25910 58314
L25934 58291
L25958 58243
L25958 57838
" />
<path d="M26172 58314
L26244 58338
L26363 58338
L26410 58314
L26434 58291
L26458 58243
L26458 58195
L26434 58148
L26410 58124
L26363 58100
L26268 58076
L26220 58052
L26196 58029
L26172 57981
L26172 57933
L26196 57886
L26220 57862
L26268 57838
L26387 57838
L26458 57862
" />
<path d="M26839 58076
L26910 58100
L26934 58124
L26958 58171
L26958 58243
L26934 58291
L26910 58314
L26863 58338
L26672 58338
L26672 57838
L26839 57838
L26887 57862
L26910 57886
L26934 57933
L26934 57981
L26910 58029
L26887 58052
L26839 58076
L26672 58076
" />
<path d="M27482 57838
L27649 58338
L27815 57838
" />
<path d="M27982 58338
L27982 58005
" />
<path d="M27982 57838
L27958 57862
L27982 57886
L28006 57862
L27982 57838
L27982 57886
" />
<path d="M28434 58338
L28434 57838
" />
<path d="M28434 58314
L28387 58338
L28291 58338
L28244 58314
L28220 58291
L28196 58243
L28196 58100
L28220 58052
L28244 58029
L28291 58005
L28387 58005
L28434 58029
" />
<path d="M28863 58314
L28815 58338
L28720 58338
L28672 58314
L28649 58267
L28649 58076
L28672 58029
L28720 58005
L28815 58005
L28863 58029
L28887 58076
L28887 58124
L28649 58171
" />
<path d="M29172 58338
L29125 58314
L29101 58291
L29077 58243
L29077 58100
L29101 58052
L29125 58029
L29172 58005
L29244 58005
L29291 58029
L29315 58052
L29339 58100
L29339 58243
L29315 58291
L29291 58314
L29244 58338
L29172 58338
" />
<path d="M30220 58291
L30196 58314
L30125 58338
L30077 58338
L30006 58314
L29958 58267
L29934 58219
L29910 58124
L29910 58052
L29934 57957
L29958 57910
L30006 57862
L30077 57838
L30125 57838
L30196 57862
L30220 57886
" />
<path d="M30649 58338
L30649 58076
L30625 58029
L30577 58005
L30482 58005
L30434 58029
" />
<path d="M30649 58314
L30601 58338
L30482 58338
L30434 58314
L30410 58267
L30410 58219
L30434 58171
L30482 58148
L30601 58148
L30649 58124
" />
<path d="M30887 58338
L30887 58005
" />
<path d="M30887 58100
L30910 58052
L30934 58029
L30982 58005
L31030 58005
" />
<path d="M31410 58338
L31410 57838
" />
<path d="M31410 58314
L31363 58338
L31268 58338
L31220 58314
L31196 58291
L31172 58243
L31172 58100
L31196 58052
L31220 58029
L31268 58005
L31363 58005
L31410 58029
" />
<path d="M31601 58529
L31625 58505
L31672 58433
L31696 58386
L31720 58314
L31744 58195
L31744 58100
L31720 57981
L31696 57910
L31672 57862
L31625 57791
L31601 57767
" />
</g></g>
<g style="fill:#0000C2; fill-opacity:0.0; 
stroke:#0000C2; stroke-width:62.519685; stroke-opacity:1; 
stroke-linecap:round; stroke-linejoin:round;">
</g>
<g style="fill:#0000C2; fill-opacity:0.0; 
stroke:#0000C2; stroke-width:60.000000; stroke-opacity:1; 
stroke-linecap:round; stroke-linejoin:round;">
<text x="17000.000000" y="39362.480315"
textLength="8179.055118" font-size="666.653543" lengthAdjust="spacingAndGlyphs"
text-anchor="start" opacity="0">Smartphone or tablet</text>
<g class="stroked-text"><desc>Smartphone or tablet</desc>
<path d="M17125 39314
L17196 39338
L17315 39338
L17363 39314
L17387 39291
L17410 39243
L17410 39195
L17387 39148
L17363 39124
L17315 39100
L17220 39076
L17172 39052
L17149 39029
L17125 38981
L17125 38933
L17149 38886
L17172 38862
L17220 38838
L17339 38838
L17410 38862
" />
<path d="M17625 39338
L17625 39005
" />
<path d="M17625 39052
L17649 39029
L17696 39005
L17768 39005
L17815 39029
L17839 39076
L17839 39338
" />
<path d="M17839 39076
L17863 39029
L17910 39005
L17982 39005
L18030 39029
L18053 39076
L18053 39338
" />
<path d="M18506 39338
L18506 39076
L18482 39029
L18434 39005
L18339 39005
L18291 39029
" />
<path d="M18506 39314
L18458 39338
L18339 39338
L18291 39314
L18268 39267
L18268 39219
L18291 39171
L18339 39148
L18458 39148
L18506 39124
" />
<path d="M18744 39338
L18744 39005
" />
<path d="M18744 39100
L18768 39052
L18791 39029
L18839 39005
L18887 39005
" />
<path d="M18982 39005
L19172 39005
" />
<path d="M19053 38838
L19053 39267
L19077 39314
L19125 39338
L19172 39338
" />
<path d="M19339 39005
L19339 39505
" />
<path d="M19339 39029
L19387 39005
L19482 39005
L19530 39029
L19553 39052
L19577 39100
L19577 39243
L19553 39291
L19530 39314
L19482 39338
L19387 39338
L19339 39314
" />
<path d="M19791 39338
L19791 38838
" />
<path d="M20006 39338
L20006 39076
L19982 39029
L19934 39005
L19863 39005
L19815 39029
L19791 39052
" />
<path d="M20315 39338
L20268 39314
L20244 39291
L20220 39243
L20220 39100
L20244 39052
L20268 39029
L20315 39005
L20387 39005
L20434 39029
L20458 39052
L20482 39100
L20482 39243
L20458 39291
L20434 39314
L20387 39338
L20315 39338
" />
<path d="M20696 39005
L20696 39338
" />
<path d="M20696 39052
L20720 39029
L20768 39005
L20839 39005
L20887 39029
L20910 39076
L20910 39338
" />
<path d="M21339 39314
L21291 39338
L21196 39338
L21149 39314
L21125 39267
L21125 39076
L21149 39029
L21196 39005
L21291 39005
L21339 39029
L21363 39076
L21363 39124
L21125 39171
" />
<path d="M22030 39338
L21982 39314
L21958 39291
L21934 39243
L21934 39100
L21958 39052
L21982 39029
L22030 39005
L22101 39005
L22149 39029
L22172 39052
L22196 39100
L22196 39243
L22172 39291
L22149 39314
L22101 39338
L22030 39338
" />
<path d="M22410 39338
L22410 39005
" />
<path d="M22410 39100
L22434 39052
L22458 39029
L22506 39005
L22553 39005
" />
<path d="M23030 39005
L23220 39005
" />
<path d="M23101 38838
L23101 39267
L23125 39314
L23172 39338
L23220 39338
" />
<path d="M23601 39338
L23601 39076
L23577 39029
L23530 39005
L23434 39005
L23387 39029
" />
<path d="M23601 39314
L23553 39338
L23434 39338
L23387 39314
L23363 39267
L23363 39219
L23387 39171
L23434 39148
L23553 39148
L23601 39124
" />
<path d="M23839 39338
L23839 38838
" />
<path d="M23839 39029
L23887 39005
L23982 39005
L24030 39029
L24053 39052
L24077 39100
L24077 39243
L24053 39291
L24030 39314
L23982 39338
L23887 39338
L23839 39314
" />
<path d="M24363 39338
L24315 39314
L24291 39267
L24291 38838
" />
<path d="M24744 39314
L24696 39338
L24601 39338
L24553 39314
L24530 39267
L24530 39076
L24553 39029
L24601 39005
L24696 39005
L24744 39029
L24768 39076
L24768 39124
L24530 39171
" />
<path d="M24910 39005
L25101 39005
" />
<path d="M24982 38838
L24982 39267
L25006 39314
L25053 39338
L25101 39338
" />
</g></g>
<g style="fill:#0000C2; fill-opacity:0.0; 
stroke:#0000C2; stroke-width:62.519685; stroke-opacity:1; 
stroke-linecap:round; stroke-linejoin:round;">
</g>
<g style="fill:#0000C2; fill-opacity:0.0; 
stroke:#0000C2; stroke-width:60.000000; stroke-opacity:1; 
stroke-linecap:round; stroke-linejoin:round;">
<text x="15500.000000" y="51862.480315"
textLength="1321.889764" font-size="666.653543" lengthAdjust="spacingAndGlyphs"
text-anchor="end" opacity="0">Car</text>
<g class="stroked-text"><desc>Car</desc>
<path d="M14612 51791
L14589 51814
L14517 51838
L14470 51838
L14398 51814
L14350 51767
L14327 51719
L14303 51624
L14303 51552
L14327 51457
L14350 51410
L14398 51362
L14470 51338
L14517 51338
L14589 51362
L14612 51386
" />
<path d="M15041 51838
L15041 51576
L15017 51529
L14970 51505
L14874 51505
L14827 51529
" />
<path d="M15041 51814
L14993 51838
L14874 51838
L14827 51814
L14803 51767
L14803 51719
L14827 51671
L14874 51648
L14993 51648
L15041 51624
" />
<path d="M15279 51838
L15279 51505
" />
<path d="M15279 51600
L15303 51552
L15327 51529
L15374 51505
L15422 51505
" />
</g></g>
<g style="fill:#009600; fill-opacity:0.0; 
stroke:#009600; stroke-width:60.000000; stroke-opacity:1; 
stroke-linecap:round; stroke-linejoin:round;">
<path d="M30500 52500
L30500 53500
" />
<path d="M33000 56000
L33000 56500
" />
<path d="M34500 53500
L34500 56500
" />
<path d="M34500 53000
L32500 53000
" />
<path d="M30500 53500
L34500 53500
" />
<path d="M32500 52500
L32500 53000
" />
<path d="M18500 51500
L20500 51500
" />
<path d="M27500 43500
L27500 46500
" />
<path d="M32000 41000
L32000 41500
" />
<path d="M30500 41000
L30500 42500
" />
<path d="M29000 41000
L29000 43500
" />
<path d="M34500 43500
L34500 53000
" />
<path d="M36000 42500
L36000 56500
" />
<path d="M31500 44500
L31500 46500
" />
<path d="M26000 41500
L26000 43500
" />
<path d="M20500 46000
L20500 51500
" />
<path d="M20000 46000
L18500 46000
" />
<path d="M23500 46000
L20500 46000
" />
<path d="M20000 46000
L20000 53500
" />
<path d="M26500 52500
L26500 53500
" />
<path d="M23500 52500
L23500 53000
" />
<path d="M27500 52500
L28500 52500
" />
<path d="M27500 52500
L27500 53500
" />
<path d="M20000 43500
L20000 46000
" />
<path d="M31500 44500
L18500 44500
" />
<path d="M37500 41500
L37500 56500
" />
<path d="M20000 43500
L26000 43500
" />
<path d="M20000 56000
L33000 56000
" />
<path d="M23500 46000
L23500 46500
" />
<path d="M20000 53500
L20000 56000
" />
<path d="M23500 53000
L18500 53000
" />
<path d="M20000 53500
L23500 53500
" />
<path d="M29000 43500
L34500 43500
" />
<path d="M32000 41500
L37500 41500
" />
<path d="M30500 42500
L36000 42500
" />
</g>
<g style="fill:#009600; fill-opacity:1.0; 
stroke:#009600; stroke-width:60.000000; stroke-opacity:1; 
stroke-linecap:round; stroke-linejoin:round;">
<circle cx="20000.000000" cy="46000.000000" r="180.000000" /> 
<circle cx="20000.000000" cy="53500.000000" r="180.000000" /> 
<circle cx="30500.000000" cy="53500.000000" r="180.000000" /> 
</g> 
</svg>
