<?xml version="1.0" standalone="no"?>
 <!DOCTYPE svg PUBLIC "-//W3C//DTD SVG 1.1//EN" 
 "http://www.w3.org/Graphics/SVG/1.1/DTD/svg11.dtd"> 
<svg
  xmlns:svg="http://www.w3.org/2000/svg"
  xmlns="http://www.w3.org/2000/svg"
  xmlns:xlink="http://www.w3.org/1999/xlink"
  version="1.1"
  width="114mm" height="78mm" viewBox="12000 39000 28500 19500">
<title>SVG Picture created as Relay.svg date 2022/09/09 23:28:40 </title>
  <desc>Picture generated by Eeschema-SVG </desc>
<g style="fill:#FFFFFF; fill-opacity:1.000000;stroke:#000000; stroke-opacity:1.000000;
stroke-linecap:round; stroke-linejoin:round;"
 transform="translate(0 0) scale(1 1)">
<rect x="12000.000000" y="39000.000000" width="28500.000000" height="19500.000000" rx="0.000000" />
</g>
<g style="fill:#000000; fill-opacity:0.0; 
stroke:#000000; stroke-width:60.000000; stroke-opacity:1; 
stroke-linecap:round; stroke-linejoin:round;">
<g style="fill:#FFFFC2; fill-opacity:0.6; 
stroke:#FFFFC2; stroke-width:0.039370; stroke-opacity:1; 
stroke-linecap:round; stroke-linejoin:round;">
<rect x="21250.000000" y="47500.000000" width="16250.000000" height="4000.000000" rx="0.000000" />
</g>
<g style="fill:#840000; fill-opacity:0.0; 
stroke:#840000; stroke-width:100.000000; stroke-opacity:1; 
stroke-linecap:round; stroke-linejoin:round;">
<rect x="21250.000000" y="47500.000000" width="16250.000000" height="4000.000000" rx="0.000000" />
<rect x="21250.000000" y="47500.000000" width="16250.000000" height="4000.000000" rx="0.000000" />
<rect x="22250.000000" y="48750.000000" width="2500.000000" height="1500.000000" rx="0.000000" />
<path style="fill:#840000; fill-opacity:0.0; 
stroke:#840000; stroke-width:100.000000; stroke-opacity:1; 
stroke-linecap:round; stroke-linejoin:round;fill:none"
d="M 22500.000000,48750.000000
24500.000000,50250.000000
" /> 
</g>
<g style="fill:#840000; fill-opacity:0.0; 
stroke:#840000; stroke-width:60.000000; stroke-opacity:1; 
stroke-linecap:round; stroke-linejoin:round;">
<path style="fill:#840000; fill-opacity:0.0; 
stroke:#840000; stroke-width:60.000000; stroke-opacity:1; 
stroke-linecap:round; stroke-linejoin:round;fill:none"
d="M 23500.000000,47500.000000
23500.000000,48750.000000
" /> 
<path style="fill:#840000; fill-opacity:0.0; 
stroke:#840000; stroke-width:60.000000; stroke-opacity:1; 
stroke-linecap:round; stroke-linejoin:round;fill:none"
d="M 23500.000000,51500.000000
23500.000000,50250.000000
" /> 
</g>
<g style="fill:#840000; fill-opacity:0.0; 
stroke:#840000; stroke-width:100.000000; stroke-opacity:1; 
stroke-linecap:round; stroke-linejoin:round;">
<path style="fill:#840000; fill-opacity:0.0; 
stroke:#840000; stroke-width:100.000000; stroke-opacity:1; 
stroke-linecap:round; stroke-linejoin:round;fill:none"
d="M 24750.000000,49500.000000
25000.000000,49500.000000
" /> 
<path style="fill:#840000; fill-opacity:0.0; 
stroke:#840000; stroke-width:100.000000; stroke-opacity:1; 
stroke-linecap:round; stroke-linejoin:round;fill:none"
d="M 25250.000000,49500.000000
25500.000000,49500.000000
" /> 
<path style="fill:#840000; fill-opacity:0.0; 
stroke:#840000; stroke-width:100.000000; stroke-opacity:1; 
stroke-linecap:round; stroke-linejoin:round;fill:none"
d="M 25750.000000,49500.000000
26000.000000,49500.000000
" /> 
<path style="fill:#840000; fill-opacity:0.0; 
stroke:#840000; stroke-width:100.000000; stroke-opacity:1; 
stroke-linecap:round; stroke-linejoin:round;fill:none"
d="M 26250.000000,49500.000000
26500.000000,49500.000000
" /> 
<path style="fill:#840000; fill-opacity:0.0; 
stroke:#840000; stroke-width:100.000000; stroke-opacity:1; 
stroke-linecap:round; stroke-linejoin:round;fill:none"
d="M 26750.000000,49500.000000
27000.000000,49500.000000
" /> 
<path style="fill:#840000; fill-opacity:0.0; 
stroke:#840000; stroke-width:100.000000; stroke-opacity:1; 
stroke-linecap:round; stroke-linejoin:round;fill:none"
d="M 27250.000000,49500.000000
27500.000000,49500.000000
" /> 
</g>
<g style="fill:#840000; fill-opacity:0.0; 
stroke:#840000; stroke-width:200.000000; stroke-opacity:1; 
stroke-linecap:round; stroke-linejoin:round;">
<path style="fill:#840000; fill-opacity:0.0; 
stroke:#840000; stroke-width:200.000000; stroke-opacity:1; 
stroke-linecap:round; stroke-linejoin:round;fill:none"
d="M 27500.000000,48500.000000
26750.000000,51000.000000
" /> 
</g>
<g style="fill:#840000; fill-opacity:0.0; 
stroke:#840000; stroke-width:60.000000; stroke-opacity:1; 
stroke-linecap:round; stroke-linejoin:round;">
<path style="fill:#840000; fill-opacity:0.0; 
stroke:#840000; stroke-width:60.000000; stroke-opacity:1; 
stroke-linecap:round; stroke-linejoin:round;fill:none"
d="M 27500.000000,48500.000000
27500.000000,47500.000000
" /> 
</g>
<g style="fill:#840000; fill-opacity:0.0; 
stroke:#840000; stroke-width:100.000000; stroke-opacity:1; 
stroke-linecap:round; stroke-linejoin:round;">
<path style="fill:#840000; fill-opacity:0.0; 
stroke:#840000; stroke-width:100.000000; stroke-opacity:1; 
stroke-linecap:round; stroke-linejoin:round;fill:none"
d="M 27750.000000,49500.000000
28000.000000,49500.000000
" /> 
<path style="fill:#840000; fill-opacity:0.0; 
stroke:#840000; stroke-width:100.000000; stroke-opacity:1; 
stroke-linecap:round; stroke-linejoin:round;fill:none"
d="M 28250.000000,49500.000000
28500.000000,49500.000000
" /> 
<path style="fill:#840000; fill-opacity:0.0; 
stroke:#840000; stroke-width:100.000000; stroke-opacity:1; 
stroke-linecap:round; stroke-linejoin:round;fill:none"
d="M 28750.000000,49500.000000
29000.000000,49500.000000
" /> 
<path style="fill:#840000; fill-opacity:0.0; 
stroke:#840000; stroke-width:100.000000; stroke-opacity:1; 
stroke-linecap:round; stroke-linejoin:round;fill:none"
d="M 29250.000000,49500.000000
29500.000000,49500.000000
" /> 
<path style="fill:#840000; fill-opacity:0.0; 
stroke:#840000; stroke-width:100.000000; stroke-opacity:1; 
stroke-linecap:round; stroke-linejoin:round;fill:none"
d="M 29750.000000,49500.000000
30000.000000,49500.000000
" /> 
<path style="fill:#840000; fill-opacity:0.0; 
stroke:#840000; stroke-width:100.000000; stroke-opacity:1; 
stroke-linecap:round; stroke-linejoin:round;fill:none"
d="M 30250.000000,49500.000000
30500.000000,49500.000000
" /> 
<path style="fill:#840000; fill-opacity:0.0; 
stroke:#840000; stroke-width:100.000000; stroke-opacity:1; 
stroke-linecap:round; stroke-linejoin:round;fill:none"
d="M 30750.000000,49500.000000
31000.000000,49500.000000
" /> 
<path style="fill:#840000; fill-opacity:0.0; 
stroke:#840000; stroke-width:100.000000; stroke-opacity:1; 
stroke-linecap:round; stroke-linejoin:round;fill:none"
d="M 31250.000000,49500.000000
31500.000000,49500.000000
" /> 
</g>
<g style="fill:#840000; fill-opacity:0.0; 
stroke:#840000; stroke-width:200.000000; stroke-opacity:1; 
stroke-linecap:round; stroke-linejoin:round;">
<path style="fill:#840000; fill-opacity:0.0; 
stroke:#840000; stroke-width:200.000000; stroke-opacity:1; 
stroke-linecap:round; stroke-linejoin:round;fill:none"
d="M 31500.000000,48500.000000
30750.000000,51000.000000
" /> 
</g>
<g style="fill:#840000; fill-opacity:0.0; 
stroke:#840000; stroke-width:60.000000; stroke-opacity:1; 
stroke-linecap:round; stroke-linejoin:round;">
<path style="fill:#840000; fill-opacity:0.0; 
stroke:#840000; stroke-width:60.000000; stroke-opacity:1; 
stroke-linecap:round; stroke-linejoin:round;fill:none"
d="M 31500.000000,48500.000000
31500.000000,47500.000000
" /> 
</g>
<g style="fill:#840000; fill-opacity:0.0; 
stroke:#840000; stroke-width:100.000000; stroke-opacity:1; 
stroke-linecap:round; stroke-linejoin:round;">
<path style="fill:#840000; fill-opacity:0.0; 
stroke:#840000; stroke-width:100.000000; stroke-opacity:1; 
stroke-linecap:round; stroke-linejoin:round;fill:none"
d="M 31750.000000,49500.000000
32000.000000,49500.000000
" /> 
<path style="fill:#840000; fill-opacity:0.0; 
stroke:#840000; stroke-width:100.000000; stroke-opacity:1; 
stroke-linecap:round; stroke-linejoin:round;fill:none"
d="M 32250.000000,49500.000000
32500.000000,49500.000000
" /> 
<path style="fill:#840000; fill-opacity:0.0; 
stroke:#840000; stroke-width:100.000000; stroke-opacity:1; 
stroke-linecap:round; stroke-linejoin:round;fill:none"
d="M 32750.000000,49500.000000
33000.000000,49500.000000
" /> 
<path style="fill:#840000; fill-opacity:0.0; 
stroke:#840000; stroke-width:100.000000; stroke-opacity:1; 
stroke-linecap:round; stroke-linejoin:round;fill:none"
d="M 33250.000000,49500.000000
33500.000000,49500.000000
" /> 
<path style="fill:#840000; fill-opacity:0.0; 
stroke:#840000; stroke-width:100.000000; stroke-opacity:1; 
stroke-linecap:round; stroke-linejoin:round;fill:none"
d="M 33750.000000,49500.000000
34000.000000,49500.000000
" /> 
<path style="fill:#840000; fill-opacity:0.0; 
stroke:#840000; stroke-width:100.000000; stroke-opacity:1; 
stroke-linecap:round; stroke-linejoin:round;fill:none"
d="M 34250.000000,49500.000000
34500.000000,49500.000000
" /> 
<path style="fill:#840000; fill-opacity:0.0; 
stroke:#840000; stroke-width:100.000000; stroke-opacity:1; 
stroke-linecap:round; stroke-linejoin:round;fill:none"
d="M 34750.000000,49500.000000
35000.000000,49500.000000
" /> 
</g>
<g style="fill:#840000; fill-opacity:0.0; 
stroke:#840000; stroke-width:200.000000; stroke-opacity:1; 
stroke-linecap:round; stroke-linejoin:round;">
<path style="fill:#840000; fill-opacity:0.0; 
stroke:#840000; stroke-width:200.000000; stroke-opacity:1; 
stroke-linecap:round; stroke-linejoin:round;fill:none"
d="M 35500.000000,48500.000000
34750.000000,51000.000000
" /> 
</g>
<g style="fill:#840000; fill-opacity:0.0; 
stroke:#840000; stroke-width:60.000000; stroke-opacity:1; 
stroke-linecap:round; stroke-linejoin:round;">
<path style="fill:#840000; fill-opacity:0.0; 
stroke:#840000; stroke-width:60.000000; stroke-opacity:1; 
stroke-linecap:round; stroke-linejoin:round;fill:none"
d="M 35500.000000,48500.000000
35500.000000,47500.000000
" /> 
</g>
<g style="fill:#840000; fill-opacity:1.0; 
stroke:#840000; stroke-width:60.000000; stroke-opacity:1; 
stroke-linecap:round; stroke-linejoin:round;">
<path style="fill:#840000; fill-opacity:1.0; 
stroke:#840000; stroke-width:60.000000; stroke-opacity:1; 
stroke-linecap:round; stroke-linejoin:round;fill-rule:evenodd;"
d="M 26500.000000,51500.000000
26500.000000,50500.000000
26750.000000,50750.000000
26500.000000,51000.000000
" /> 
</g>
<g style="fill:#840000; fill-opacity:0.0; 
stroke:#840000; stroke-width:60.000000; stroke-opacity:1; 
stroke-linecap:round; stroke-linejoin:round;">
<path style="fill:#840000; fill-opacity:0.0; 
stroke:#840000; stroke-width:60.000000; stroke-opacity:1; 
stroke-linecap:round; stroke-linejoin:round;fill:none"
d="M 28500.000000,51500.000000
28500.000000,50500.000000
28250.000000,50750.000000
28500.000000,51000.000000
" /> 
</g>
<g style="fill:#840000; fill-opacity:1.0; 
stroke:#840000; stroke-width:60.000000; stroke-opacity:1; 
stroke-linecap:round; stroke-linejoin:round;">
<path style="fill:#840000; fill-opacity:1.0; 
stroke:#840000; stroke-width:60.000000; stroke-opacity:1; 
stroke-linecap:round; stroke-linejoin:round;fill-rule:evenodd;"
d="M 30500.000000,51500.000000
30500.000000,50500.000000
30750.000000,50750.000000
30500.000000,51000.000000
" /> 
</g>
<g style="fill:#840000; fill-opacity:0.0; 
stroke:#840000; stroke-width:60.000000; stroke-opacity:1; 
stroke-linecap:round; stroke-linejoin:round;">
<path style="fill:#840000; fill-opacity:0.0; 
stroke:#840000; stroke-width:60.000000; stroke-opacity:1; 
stroke-linecap:round; stroke-linejoin:round;fill:none"
d="M 32500.000000,51500.000000
32500.000000,50500.000000
32250.000000,50750.000000
32500.000000,51000.000000
" /> 
</g>
<g style="fill:#840000; fill-opacity:1.0; 
stroke:#840000; stroke-width:60.000000; stroke-opacity:1; 
stroke-linecap:round; stroke-linejoin:round;">
<path style="fill:#840000; fill-opacity:1.0; 
stroke:#840000; stroke-width:60.000000; stroke-opacity:1; 
stroke-linecap:round; stroke-linejoin:round;fill-rule:evenodd;"
d="M 34500.000000,51500.000000
34500.000000,50500.000000
34750.000000,50750.000000
34500.000000,51000.000000
" /> 
</g>
<g style="fill:#840000; fill-opacity:0.0; 
stroke:#840000; stroke-width:60.000000; stroke-opacity:1; 
stroke-linecap:round; stroke-linejoin:round;">
<path style="fill:#840000; fill-opacity:0.0; 
stroke:#840000; stroke-width:60.000000; stroke-opacity:1; 
stroke-linecap:round; stroke-linejoin:round;fill:none"
d="M 36500.000000,51500.000000
36500.000000,50500.000000
36250.000000,50750.000000
36500.000000,51000.000000
" /> 
</g>
<g style="fill:#840000; fill-opacity:0.0; 
stroke:#840000; stroke-width:62.519685; stroke-opacity:1; 
stroke-linecap:round; stroke-linejoin:round;">
<text x="23850.000000" y="50900.000000"
textLength="681.574803" font-size="666.653543" lengthAdjust="spacingAndGlyphs"
text-anchor="middle" opacity="0">+</text>
<g class="stroked-text"><desc>+</desc>
<path d="M23659 50685
L24040 50685
" />
<path d="M23850 50876
L23850 50495
" />
</g></g>
<g style="fill:#840000; fill-opacity:0.0; 
stroke:#840000; stroke-width:60.000000; stroke-opacity:1; 
stroke-linecap:round; stroke-linejoin:round;">
<path d="M23500 47500
L23500 46500
" />
<path d="M23500 51500
L23500 52500
" />
<path d="M26500 51500
L26500 52500
" />
<path d="M27500 47500
L27500 46500
" />
<path d="M28500 51500
L28500 52500
" />
<path d="M30500 51500
L30500 52500
" />
<path d="M31500 47500
L31500 46500
" />
<path d="M32500 51500
L32500 52500
" />
<path d="M34500 51500
L34500 52500
" />
<path d="M35500 47500
L35500 46500
" />
<path d="M36500 51500
L36500 52500
" />
</g>
</g>
<g style="fill:#840000; fill-opacity:0.0; 
stroke:#840000; stroke-width:62.519685; stroke-opacity:1; 
stroke-linecap:round; stroke-linejoin:round;">
</g>
<g style="fill:#840000; fill-opacity:0.0; 
stroke:#840000; stroke-width:60.000000; stroke-opacity:1; 
stroke-linecap:round; stroke-linejoin:round;">
<g transform="rotate(-90.000000 20035.748031 42937.480315)">
<text x="20035.748031" y="43187.480315"
textLength="1467.283465" font-size="666.653543" lengthAdjust="spacingAndGlyphs"
text-anchor="start" opacity="0">Gnd</text>
</g>
<g class="stroked-text"><desc>Gnd</desc>
<path d="M19785 42526
L19761 42574
L19761 42645
L19785 42716
L19833 42764
L19880 42788
L19976 42812
L20047 42812
L20142 42788
L20190 42764
L20238 42716
L20261 42645
L20261 42597
L20238 42526
L20214 42502
L20047 42502
L20047 42597
" />
<path d="M19928 42288
L20261 42288
" />
<path d="M19976 42288
L19952 42264
L19928 42216
L19928 42145
L19952 42097
L20000 42074
L20261 42074
" />
<path d="M20261 41621
L19761 41621
" />
<path d="M20238 41621
L20261 41669
L20261 41764
L20238 41812
L20214 41836
L20166 41859
L20023 41859
L19976 41836
L19952 41812
L19928 41764
L19928 41669
L19952 41621
" />
</g><path style="fill:#840000; fill-opacity:0.0; 
stroke:#840000; stroke-width:60.000000; stroke-opacity:1; 
stroke-linecap:round; stroke-linejoin:round;fill:none"
d="M 20000.000000,43500.000000
20500.157480,43062.480315
20500.157480,41157.519685
20000.000000,40720.000000
19499.842520,41157.519685
19499.842520,43062.480315
Z" /> 
</g>
<g style="fill:#840000; fill-opacity:0.0; 
stroke:#840000; stroke-width:62.519685; stroke-opacity:1; 
stroke-linecap:round; stroke-linejoin:round;">
</g>
<g style="fill:#840000; fill-opacity:0.0; 
stroke:#840000; stroke-width:60.000000; stroke-opacity:1; 
stroke-linecap:round; stroke-linejoin:round;">
<text x="17937.480315" y="51785.748031"
textLength="1467.283465" font-size="666.653543" lengthAdjust="spacingAndGlyphs"
text-anchor="end" opacity="0">Gnd</text>
<g class="stroked-text"><desc>Gnd</desc>
<path d="M16883 51285
L16836 51261
L16764 51261
L16693 51285
L16645 51333
L16621 51380
L16597 51476
L16597 51547
L16621 51642
L16645 51690
L16693 51738
L16764 51761
L16812 51761
L16883 51738
L16907 51714
L16907 51547
L16812 51547
" />
<path d="M17121 51428
L17121 51761
" />
<path d="M17121 51476
L17145 51452
L17193 51428
L17264 51428
L17312 51452
L17336 51500
L17336 51761
" />
<path d="M17788 51761
L17788 51261
" />
<path d="M17788 51738
L17740 51761
L17645 51761
L17597 51738
L17574 51714
L17550 51666
L17550 51523
L17574 51476
L17597 51452
L17645 51428
L17740 51428
L17788 51452
" />
</g><path style="fill:#840000; fill-opacity:0.0; 
stroke:#840000; stroke-width:60.000000; stroke-opacity:1; 
stroke-linecap:round; stroke-linejoin:round;fill:none"
d="M 18500.000000,51500.000000
18062.480315,50999.842520
16157.519685,50999.842520
16157.519685,51500.000000
16157.519685,52000.157480
18062.480315,52000.157480
Z" /> 
</g>
<g style="fill:#840000; fill-opacity:0.0; 
stroke:#840000; stroke-width:62.519685; stroke-opacity:1; 
stroke-linecap:round; stroke-linejoin:round;">
</g>
<g style="fill:#840000; fill-opacity:0.0; 
stroke:#840000; stroke-width:60.000000; stroke-opacity:1; 
stroke-linecap:round; stroke-linejoin:round;">
<g transform="rotate(-90.000000 39535.748031 42937.480315)">
<text x="39535.748031" y="43187.480315"
textLength="967.283465" font-size="666.653543" lengthAdjust="spacingAndGlyphs"
text-anchor="start" opacity="0">5V</text>
</g>
<g class="stroked-text"><desc>5V</desc>
<path d="M39261 42550
L39261 42788
L39500 42812
L39476 42788
L39452 42740
L39452 42621
L39476 42574
L39500 42550
L39547 42526
L39666 42526
L39714 42550
L39738 42574
L39761 42621
L39761 42740
L39738 42788
L39714 42812
" />
<path d="M39261 42383
L39761 42216
L39261 42050
" />
</g><path style="fill:#840000; fill-opacity:0.0; 
stroke:#840000; stroke-width:60.000000; stroke-opacity:1; 
stroke-linecap:round; stroke-linejoin:round;fill:none"
d="M 39500.000000,43500.000000
40000.157480,43062.480315
40000.157480,41657.519685
39500.000000,41220.000000
38999.842520,41657.519685
38999.842520,43062.480315
Z" /> 
</g>
<g style="fill:#840000; fill-opacity:0.0; 
stroke:#840000; stroke-width:62.519685; stroke-opacity:1; 
stroke-linecap:round; stroke-linejoin:round;">
</g>
<g style="fill:#840000; fill-opacity:0.0; 
stroke:#840000; stroke-width:60.000000; stroke-opacity:1; 
stroke-linecap:round; stroke-linejoin:round;">
<g transform="rotate(-90.000000 27535.748031 42937.480315)">
<text x="27535.748031" y="43187.480315"
textLength="1181.574803" font-size="666.653543" lengthAdjust="spacingAndGlyphs"
text-anchor="start" opacity="0">D-</text>
</g>
<g class="stroked-text"><desc>D-</desc>
<path d="M27761 42788
L27261 42788
L27261 42669
L27285 42597
L27333 42550
L27380 42526
L27476 42502
L27547 42502
L27642 42526
L27690 42550
L27738 42597
L27761 42669
L27761 42788
" />
<path d="M27571 42288
L27571 41907
" />
</g><path style="fill:#840000; fill-opacity:0.0; 
stroke:#840000; stroke-width:60.000000; stroke-opacity:1; 
stroke-linecap:round; stroke-linejoin:round;fill:none"
d="M 27500.000000,43500.000000
28000.157480,43062.480315
28000.157480,41443.228346
27500.000000,41005.708661
26999.842520,41443.228346
26999.842520,43062.480315
Z" /> 
</g>
<g style="fill:#840000; fill-opacity:0.0; 
stroke:#840000; stroke-width:62.519685; stroke-opacity:1; 
stroke-linecap:round; stroke-linejoin:round;">
</g>
<g style="fill:#840000; fill-opacity:0.0; 
stroke:#840000; stroke-width:60.000000; stroke-opacity:1; 
stroke-linecap:round; stroke-linejoin:round;">
<g transform="rotate(-90.000000 26535.748031 54187.519685)">
<text x="26535.748031" y="54437.519685"
textLength="1181.574803" font-size="666.653543" lengthAdjust="spacingAndGlyphs"
text-anchor="end" opacity="0">D-</text>
</g>
<g class="stroked-text"><desc>D-</desc>
<path d="M26761 55217
L26261 55217
L26261 55098
L26285 55027
L26333 54979
L26380 54955
L26476 54931
L26547 54931
L26642 54955
L26690 54979
L26738 55027
L26761 55098
L26761 55217
" />
<path d="M26571 54717
L26571 54336
" />
</g><path style="fill:#840000; fill-opacity:0.0; 
stroke:#840000; stroke-width:60.000000; stroke-opacity:1; 
stroke-linecap:round; stroke-linejoin:round;fill:none"
d="M 26500.000000,54000.000000
25999.842520,54000.000000
25999.842520,55619.251969
26500.000000,56056.771654
27000.157480,55619.251969
27000.157480,54000.000000
Z" /> 
</g>
<g style="fill:#840000; fill-opacity:0.0; 
stroke:#840000; stroke-width:62.519685; stroke-opacity:1; 
stroke-linecap:round; stroke-linejoin:round;">
</g>
<g style="fill:#840000; fill-opacity:0.0; 
stroke:#840000; stroke-width:60.000000; stroke-opacity:1; 
stroke-linecap:round; stroke-linejoin:round;">
<text x="17937.480315" y="53285.748031"
textLength="5157.755906" font-size="666.653543" lengthAdjust="spacingAndGlyphs"
text-anchor="end" opacity="0">Reverse Light</text>
<g class="stroked-text"><desc>Reverse Light</desc>
<path d="M13216 53261
L13050 53023
" />
<path d="M12931 53261
L12931 52761
L13121 52761
L13169 52785
L13193 52809
L13216 52857
L13216 52928
L13193 52976
L13169 53000
L13121 53023
L12931 53023
" />
<path d="M13621 53238
L13574 53261
L13478 53261
L13431 53238
L13407 53190
L13407 53000
L13431 52952
L13478 52928
L13574 52928
L13621 52952
L13645 53000
L13645 53047
L13407 53095
" />
<path d="M13812 52928
L13931 53261
L14050 52928
" />
<path d="M14431 53238
L14383 53261
L14288 53261
L14240 53238
L14216 53190
L14216 53000
L14240 52952
L14288 52928
L14383 52928
L14431 52952
L14455 53000
L14455 53047
L14216 53095
" />
<path d="M14669 53261
L14669 52928
" />
<path d="M14669 53023
L14693 52976
L14716 52952
L14764 52928
L14812 52928
" />
<path d="M14955 53238
L15002 53261
L15097 53261
L15145 53238
L15169 53190
L15169 53166
L15145 53119
L15097 53095
L15026 53095
L14978 53071
L14955 53023
L14955 53000
L14978 52952
L15026 52928
L15097 52928
L15145 52952
" />
<path d="M15574 53238
L15526 53261
L15431 53261
L15383 53238
L15359 53190
L15359 53000
L15383 52952
L15431 52928
L15526 52928
L15574 52952
L15597 53000
L15597 53047
L15359 53095
" />
<path d="M16431 53261
L16193 53261
L16193 52761
" />
<path d="M16597 53261
L16597 52928
" />
<path d="M16597 52761
L16574 52785
L16597 52809
L16621 52785
L16597 52761
L16597 52809
" />
<path d="M17050 52928
L17050 53333
L17026 53380
L17002 53404
L16955 53428
L16883 53428
L16836 53404
" />
<path d="M17050 53238
L17002 53261
L16907 53261
L16859 53238
L16836 53214
L16812 53166
L16812 53023
L16836 52976
L16859 52952
L16907 52928
L17002 52928
L17050 52952
" />
<path d="M17288 53261
L17288 52761
" />
<path d="M17502 53261
L17502 53000
L17478 52952
L17431 52928
L17359 52928
L17312 52952
L17288 52976
" />
<path d="M17669 52928
L17859 52928
" />
<path d="M17740 52761
L17740 53190
L17764 53238
L17812 53261
L17859 53261
" />
</g><path style="fill:#840000; fill-opacity:0.0; 
stroke:#840000; stroke-width:60.000000; stroke-opacity:1; 
stroke-linecap:round; stroke-linejoin:round;fill:none"
d="M 18500.000000,53000.000000
18062.480315,52499.842520
12467.047244,52499.842520
12467.047244,53000.000000
12467.047244,53500.157480
18062.480315,53500.157480
Z" /> 
</g>
<g style="fill:#840000; fill-opacity:0.0; 
stroke:#840000; stroke-width:62.519685; stroke-opacity:1; 
stroke-linecap:round; stroke-linejoin:round;">
</g>
<g style="fill:#840000; fill-opacity:0.0; 
stroke:#840000; stroke-width:60.000000; stroke-opacity:1; 
stroke-linecap:round; stroke-linejoin:round;">
<g transform="rotate(-90.000000 31535.748031 42937.480315)">
<text x="31535.748031" y="43187.480315"
textLength="1181.574803" font-size="666.653543" lengthAdjust="spacingAndGlyphs"
text-anchor="start" opacity="0">D+</text>
</g>
<g class="stroked-text"><desc>D+</desc>
<path d="M31761 42788
L31261 42788
L31261 42669
L31285 42597
L31333 42550
L31380 42526
L31476 42502
L31547 42502
L31642 42526
L31690 42550
L31738 42597
L31761 42669
L31761 42788
" />
<path d="M31571 42288
L31571 41907
" />
<path d="M31761 42097
L31380 42097
" />
</g><path style="fill:#840000; fill-opacity:0.0; 
stroke:#840000; stroke-width:60.000000; stroke-opacity:1; 
stroke-linecap:round; stroke-linejoin:round;fill:none"
d="M 31500.000000,43500.000000
32000.157480,43062.480315
32000.157480,41443.228346
31500.000000,41005.708661
30999.842520,41443.228346
30999.842520,43062.480315
Z" /> 
</g>
<g style="fill:#840000; fill-opacity:0.0; 
stroke:#840000; stroke-width:62.519685; stroke-opacity:1; 
stroke-linecap:round; stroke-linejoin:round;">
</g>
<g style="fill:#840000; fill-opacity:0.0; 
stroke:#840000; stroke-width:60.000000; stroke-opacity:1; 
stroke-linecap:round; stroke-linejoin:round;">
<g transform="rotate(-90.000000 20035.748031 54187.519685)">
<text x="20035.748031" y="54437.519685"
textLength="1467.283465" font-size="666.653543" lengthAdjust="spacingAndGlyphs"
text-anchor="end" opacity="0">Gnd</text>
</g>
<g class="stroked-text"><desc>Gnd</desc>
<path d="M19785 55241
L19761 55288
L19761 55360
L19785 55431
L19833 55479
L19880 55503
L19976 55527
L20047 55527
L20142 55503
L20190 55479
L20238 55431
L20261 55360
L20261 55312
L20238 55241
L20214 55217
L20047 55217
L20047 55312
" />
<path d="M19928 55003
L20261 55003
" />
<path d="M19976 55003
L19952 54979
L19928 54931
L19928 54860
L19952 54812
L20000 54788
L20261 54788
" />
<path d="M20261 54336
L19761 54336
" />
<path d="M20238 54336
L20261 54384
L20261 54479
L20238 54527
L20214 54550
L20166 54574
L20023 54574
L19976 54550
L19952 54527
L19928 54479
L19928 54384
L19952 54336
" />
</g><path style="fill:#840000; fill-opacity:0.0; 
stroke:#840000; stroke-width:60.000000; stroke-opacity:1; 
stroke-linecap:round; stroke-linejoin:round;fill:none"
d="M 20000.000000,54000.000000
19499.842520,54000.000000
19499.842520,55904.960630
20000.000000,56342.480315
20500.157480,55904.960630
20500.157480,54000.000000
Z" /> 
</g>
<g style="fill:#840000; fill-opacity:0.0; 
stroke:#840000; stroke-width:62.519685; stroke-opacity:1; 
stroke-linecap:round; stroke-linejoin:round;">
</g>
<g style="fill:#840000; fill-opacity:0.0; 
stroke:#840000; stroke-width:60.000000; stroke-opacity:1; 
stroke-linecap:round; stroke-linejoin:round;">
<text x="17937.480315" y="46285.748031"
textLength="1467.283465" font-size="666.653543" lengthAdjust="spacingAndGlyphs"
text-anchor="end" opacity="0">Gnd</text>
<g class="stroked-text"><desc>Gnd</desc>
<path d="M16883 45785
L16836 45761
L16764 45761
L16693 45785
L16645 45833
L16621 45880
L16597 45976
L16597 46047
L16621 46142
L16645 46190
L16693 46238
L16764 46261
L16812 46261
L16883 46238
L16907 46214
L16907 46047
L16812 46047
" />
<path d="M17121 45928
L17121 46261
" />
<path d="M17121 45976
L17145 45952
L17193 45928
L17264 45928
L17312 45952
L17336 46000
L17336 46261
" />
<path d="M17788 46261
L17788 45761
" />
<path d="M17788 46238
L17740 46261
L17645 46261
L17597 46238
L17574 46214
L17550 46166
L17550 46023
L17574 45976
L17597 45952
L17645 45928
L17740 45928
L17788 45952
" />
</g><path style="fill:#840000; fill-opacity:0.0; 
stroke:#840000; stroke-width:60.000000; stroke-opacity:1; 
stroke-linecap:round; stroke-linejoin:round;fill:none"
d="M 18500.000000,46000.000000
18062.480315,45499.842520
16157.519685,45499.842520
16157.519685,46000.000000
16157.519685,46500.157480
18062.480315,46500.157480
Z" /> 
</g>
<g style="fill:#840000; fill-opacity:0.0; 
stroke:#840000; stroke-width:62.519685; stroke-opacity:1; 
stroke-linecap:round; stroke-linejoin:round;">
</g>
<g style="fill:#840000; fill-opacity:0.0; 
stroke:#840000; stroke-width:60.000000; stroke-opacity:1; 
stroke-linecap:round; stroke-linejoin:round;">
<g transform="rotate(-90.000000 34535.748031 54187.519685)">
<text x="34535.748031" y="54437.519685"
textLength="967.283465" font-size="666.653543" lengthAdjust="spacingAndGlyphs"
text-anchor="end" opacity="0">5V</text>
</g>
<g class="stroked-text"><desc>5V</desc>
<path d="M34261 54765
L34261 55003
L34500 55027
L34476 55003
L34452 54955
L34452 54836
L34476 54788
L34500 54765
L34547 54741
L34666 54741
L34714 54765
L34738 54788
L34761 54836
L34761 54955
L34738 55003
L34714 55027
" />
<path d="M34261 54598
L34761 54431
L34261 54265
" />
</g><path style="fill:#840000; fill-opacity:0.0; 
stroke:#840000; stroke-width:60.000000; stroke-opacity:1; 
stroke-linecap:round; stroke-linejoin:round;fill:none"
d="M 34500.000000,54000.000000
33999.842520,54000.000000
33999.842520,55404.960630
34500.000000,55842.480315
35000.157480,55404.960630
35000.157480,54000.000000
Z" /> 
</g>
<g style="fill:#840000; fill-opacity:0.0; 
stroke:#840000; stroke-width:62.519685; stroke-opacity:1; 
stroke-linecap:round; stroke-linejoin:round;">
</g>
<g style="fill:#840000; fill-opacity:0.0; 
stroke:#840000; stroke-width:60.000000; stroke-opacity:1; 
stroke-linecap:round; stroke-linejoin:round;">
<text x="17937.480315" y="44785.748031"
textLength="967.283465" font-size="666.653543" lengthAdjust="spacingAndGlyphs"
text-anchor="end" opacity="0">5V</text>
<g class="stroked-text"><desc>5V</desc>
<path d="M17359 44261
L17121 44261
L17097 44500
L17121 44476
L17169 44452
L17288 44452
L17336 44476
L17359 44500
L17383 44547
L17383 44666
L17359 44714
L17336 44738
L17288 44761
L17169 44761
L17121 44738
L17097 44714
" />
<path d="M17526 44261
L17693 44761
L17859 44261
" />
</g><path style="fill:#840000; fill-opacity:0.0; 
stroke:#840000; stroke-width:60.000000; stroke-opacity:1; 
stroke-linecap:round; stroke-linejoin:round;fill:none"
d="M 18500.000000,44500.000000
18062.480315,43999.842520
16657.519685,43999.842520
16657.519685,44500.000000
16657.519685,45000.157480
18062.480315,45000.157480
Z" /> 
</g>
<g style="fill:#840000; fill-opacity:0.0; 
stroke:#840000; stroke-width:62.519685; stroke-opacity:1; 
stroke-linecap:round; stroke-linejoin:round;">
</g>
<g style="fill:#840000; fill-opacity:0.0; 
stroke:#840000; stroke-width:60.000000; stroke-opacity:1; 
stroke-linecap:round; stroke-linejoin:round;">
<g transform="rotate(-90.000000 30535.748031 54187.519685)">
<text x="30535.748031" y="54437.519685"
textLength="1181.574803" font-size="666.653543" lengthAdjust="spacingAndGlyphs"
text-anchor="end" opacity="0">D+</text>
</g>
<g class="stroked-text"><desc>D+</desc>
<path d="M30761 55217
L30261 55217
L30261 55098
L30285 55027
L30333 54979
L30380 54955
L30476 54931
L30547 54931
L30642 54955
L30690 54979
L30738 55027
L30761 55098
L30761 55217
" />
<path d="M30571 54717
L30571 54336
" />
<path d="M30761 54527
L30380 54527
" />
</g><path style="fill:#840000; fill-opacity:0.0; 
stroke:#840000; stroke-width:60.000000; stroke-opacity:1; 
stroke-linecap:round; stroke-linejoin:round;fill:none"
d="M 30500.000000,54000.000000
29999.842520,54000.000000
29999.842520,55619.251969
30500.000000,56056.771654
31000.157480,55619.251969
31000.157480,54000.000000
Z" /> 
</g>
<g style="fill:#840000; fill-opacity:0.0; 
stroke:#840000; stroke-width:62.519685; stroke-opacity:1; 
stroke-linecap:round; stroke-linejoin:round;">
</g>
<g style="fill:#840000; fill-opacity:0.0; 
stroke:#840000; stroke-width:60.000000; stroke-opacity:1; 
stroke-linecap:round; stroke-linejoin:round;">
</g>
<g style="fill:#0000C2; fill-opacity:0.0; 
stroke:#0000C2; stroke-width:60.000000; stroke-opacity:1; 
stroke-linecap:round; stroke-linejoin:round;">
<text x="19500.000000" y="57362.480315"
textLength="15895.866142" font-size="666.653543" lengthAdjust="spacingAndGlyphs"
text-anchor="start" opacity="0">USB Host Connector (to USB Video Card)</text>
<g class="stroked-text"><desc>USB Host Connector (to USB Video Card)</desc>
<path d="M19649 56838
L19649 57243
L19672 57291
L19696 57314
L19744 57338
L19839 57338
L19887 57314
L19910 57291
L19934 57243
L19934 56838
" />
<path d="M20149 57314
L20220 57338
L20339 57338
L20387 57314
L20410 57291
L20434 57243
L20434 57195
L20410 57148
L20387 57124
L20339 57100
L20244 57076
L20196 57052
L20172 57029
L20149 56981
L20149 56933
L20172 56886
L20196 56862
L20244 56838
L20363 56838
L20434 56862
" />
<path d="M20815 57076
L20887 57100
L20910 57124
L20934 57171
L20934 57243
L20910 57291
L20887 57314
L20839 57338
L20649 57338
L20649 56838
L20815 56838
L20863 56862
L20887 56886
L20910 56933
L20910 56981
L20887 57029
L20863 57052
L20815 57076
L20649 57076
" />
<path d="M21530 57338
L21530 56838
" />
<path d="M21530 57076
L21815 57076
" />
<path d="M21815 57338
L21815 56838
" />
<path d="M22125 57338
L22077 57314
L22053 57291
L22030 57243
L22030 57100
L22053 57052
L22077 57029
L22125 57005
L22196 57005
L22244 57029
L22268 57052
L22291 57100
L22291 57243
L22268 57291
L22244 57314
L22196 57338
L22125 57338
" />
<path d="M22482 57314
L22530 57338
L22625 57338
L22672 57314
L22696 57267
L22696 57243
L22672 57195
L22625 57171
L22553 57171
L22506 57148
L22482 57100
L22482 57076
L22506 57029
L22553 57005
L22625 57005
L22672 57029
" />
<path d="M22839 57005
L23030 57005
" />
<path d="M22910 56838
L22910 57267
L22934 57314
L22982 57338
L23030 57338
" />
<path d="M23863 57291
L23839 57314
L23768 57338
L23720 57338
L23649 57314
L23601 57267
L23577 57219
L23553 57124
L23553 57052
L23577 56957
L23601 56910
L23649 56862
L23720 56838
L23768 56838
L23839 56862
L23863 56886
" />
<path d="M24149 57338
L24101 57314
L24077 57291
L24053 57243
L24053 57100
L24077 57052
L24101 57029
L24149 57005
L24220 57005
L24268 57029
L24291 57052
L24315 57100
L24315 57243
L24291 57291
L24268 57314
L24220 57338
L24149 57338
" />
<path d="M24530 57005
L24530 57338
" />
<path d="M24530 57052
L24553 57029
L24601 57005
L24672 57005
L24720 57029
L24744 57076
L24744 57338
" />
<path d="M24982 57005
L24982 57338
" />
<path d="M24982 57052
L25006 57029
L25053 57005
L25125 57005
L25172 57029
L25196 57076
L25196 57338
" />
<path d="M25625 57314
L25577 57338
L25482 57338
L25434 57314
L25410 57267
L25410 57076
L25434 57029
L25482 57005
L25577 57005
L25625 57029
L25649 57076
L25649 57124
L25410 57171
" />
<path d="M26077 57314
L26030 57338
L25934 57338
L25887 57314
L25863 57291
L25839 57243
L25839 57100
L25863 57052
L25887 57029
L25934 57005
L26030 57005
L26077 57029
" />
<path d="M26220 57005
L26410 57005
" />
<path d="M26291 56838
L26291 57267
L26315 57314
L26363 57338
L26410 57338
" />
<path d="M26649 57338
L26601 57314
L26577 57291
L26553 57243
L26553 57100
L26577 57052
L26601 57029
L26649 57005
L26720 57005
L26768 57029
L26791 57052
L26815 57100
L26815 57243
L26791 57291
L26768 57314
L26720 57338
L26649 57338
" />
<path d="M27030 57338
L27030 57005
" />
<path d="M27030 57100
L27053 57052
L27077 57029
L27125 57005
L27172 57005
" />
<path d="M27863 57529
L27839 57505
L27791 57433
L27768 57386
L27744 57314
L27720 57195
L27720 57100
L27744 56981
L27768 56910
L27791 56862
L27839 56791
L27863 56767
" />
<path d="M27982 57005
L28172 57005
" />
<path d="M28053 56838
L28053 57267
L28077 57314
L28125 57338
L28172 57338
" />
<path d="M28410 57338
L28363 57314
L28339 57291
L28315 57243
L28315 57100
L28339 57052
L28363 57029
L28410 57005
L28482 57005
L28530 57029
L28553 57052
L28577 57100
L28577 57243
L28553 57291
L28530 57314
L28482 57338
L28410 57338
" />
<path d="M29172 56838
L29172 57243
L29196 57291
L29220 57314
L29268 57338
L29363 57338
L29410 57314
L29434 57291
L29458 57243
L29458 56838
" />
<path d="M29672 57314
L29744 57338
L29863 57338
L29910 57314
L29934 57291
L29958 57243
L29958 57195
L29934 57148
L29910 57124
L29863 57100
L29768 57076
L29720 57052
L29696 57029
L29672 56981
L29672 56933
L29696 56886
L29720 56862
L29768 56838
L29887 56838
L29958 56862
" />
<path d="M30339 57076
L30410 57100
L30434 57124
L30458 57171
L30458 57243
L30434 57291
L30410 57314
L30363 57338
L30172 57338
L30172 56838
L30339 56838
L30387 56862
L30410 56886
L30434 56933
L30434 56981
L30410 57029
L30387 57052
L30339 57076
L30172 57076
" />
<path d="M30982 56838
L31149 57338
L31315 56838
" />
<path d="M31482 57338
L31482 57005
" />
<path d="M31482 56838
L31458 56862
L31482 56886
L31506 56862
L31482 56838
L31482 56886
" />
<path d="M31934 57338
L31934 56838
" />
<path d="M31934 57314
L31887 57338
L31791 57338
L31744 57314
L31720 57291
L31696 57243
L31696 57100
L31720 57052
L31744 57029
L31791 57005
L31887 57005
L31934 57029
" />
<path d="M32363 57314
L32315 57338
L32220 57338
L32172 57314
L32149 57267
L32149 57076
L32172 57029
L32220 57005
L32315 57005
L32363 57029
L32387 57076
L32387 57124
L32149 57171
" />
<path d="M32672 57338
L32625 57314
L32601 57291
L32577 57243
L32577 57100
L32601 57052
L32625 57029
L32672 57005
L32744 57005
L32791 57029
L32815 57052
L32839 57100
L32839 57243
L32815 57291
L32791 57314
L32744 57338
L32672 57338
" />
<path d="M33720 57291
L33696 57314
L33625 57338
L33577 57338
L33506 57314
L33458 57267
L33434 57219
L33410 57124
L33410 57052
L33434 56957
L33458 56910
L33506 56862
L33577 56838
L33625 56838
L33696 56862
L33720 56886
" />
<path d="M34149 57338
L34149 57076
L34125 57029
L34077 57005
L33982 57005
L33934 57029
" />
<path d="M34149 57314
L34101 57338
L33982 57338
L33934 57314
L33910 57267
L33910 57219
L33934 57171
L33982 57148
L34101 57148
L34149 57124
" />
<path d="M34387 57338
L34387 57005
" />
<path d="M34387 57100
L34410 57052
L34434 57029
L34482 57005
L34530 57005
" />
<path d="M34910 57338
L34910 56838
" />
<path d="M34910 57314
L34863 57338
L34768 57338
L34720 57314
L34696 57291
L34672 57243
L34672 57100
L34696 57052
L34720 57029
L34768 57005
L34863 57005
L34910 57029
" />
<path d="M35101 57529
L35125 57505
L35172 57433
L35196 57386
L35220 57314
L35244 57195
L35244 57100
L35220 56981
L35196 56910
L35172 56862
L35125 56791
L35101 56767
" />
</g></g>
<g style="fill:#0000C2; fill-opacity:0.0; 
stroke:#0000C2; stroke-width:62.519685; stroke-opacity:1; 
stroke-linecap:round; stroke-linejoin:round;">
</g>
<g style="fill:#0000C2; fill-opacity:0.0; 
stroke:#0000C2; stroke-width:60.000000; stroke-opacity:1; 
stroke-linecap:round; stroke-linejoin:round;">
<text x="16000.000000" y="45362.480315"
textLength="2964.763780" font-size="666.653543" lengthAdjust="spacingAndGlyphs"
text-anchor="end" opacity="0">Charger</text>
<g class="stroked-text"><desc>Charger</desc>
<path d="M13470 45291
L13446 45314
L13374 45338
L13327 45338
L13255 45314
L13208 45267
L13184 45219
L13160 45124
L13160 45052
L13184 44957
L13208 44910
L13255 44862
L13327 44838
L13374 44838
L13446 44862
L13470 44886
" />
<path d="M13684 45338
L13684 44838
" />
<path d="M13898 45338
L13898 45076
L13874 45029
L13827 45005
L13755 45005
L13708 45029
L13684 45052
" />
<path d="M14350 45338
L14350 45076
L14327 45029
L14279 45005
L14184 45005
L14136 45029
" />
<path d="M14350 45314
L14303 45338
L14184 45338
L14136 45314
L14112 45267
L14112 45219
L14136 45171
L14184 45148
L14303 45148
L14350 45124
" />
<path d="M14589 45338
L14589 45005
" />
<path d="M14589 45100
L14612 45052
L14636 45029
L14684 45005
L14731 45005
" />
<path d="M15112 45005
L15112 45410
L15089 45457
L15065 45481
L15017 45505
L14946 45505
L14898 45481
" />
<path d="M15112 45314
L15065 45338
L14970 45338
L14922 45314
L14898 45291
L14874 45243
L14874 45100
L14898 45052
L14922 45029
L14970 45005
L15065 45005
L15112 45029
" />
<path d="M15541 45314
L15493 45338
L15398 45338
L15350 45314
L15327 45267
L15327 45076
L15350 45029
L15398 45005
L15493 45005
L15541 45029
L15565 45076
L15565 45124
L15327 45171
" />
<path d="M15779 45338
L15779 45005
" />
<path d="M15779 45100
L15803 45052
L15827 45029
L15874 45005
L15922 45005
" />
</g></g>
<g style="fill:#0000C2; fill-opacity:0.0; 
stroke:#0000C2; stroke-width:62.519685; stroke-opacity:1; 
stroke-linecap:round; stroke-linejoin:round;">
</g>
<g style="fill:#0000C2; fill-opacity:0.0; 
stroke:#0000C2; stroke-width:60.000000; stroke-opacity:1; 
stroke-linecap:round; stroke-linejoin:round;">
<text x="25500.000000" y="40362.480315"
textLength="8179.055118" font-size="666.653543" lengthAdjust="spacingAndGlyphs"
text-anchor="start" opacity="0">Smartphone or tablet</text>
<g class="stroked-text"><desc>Smartphone or tablet</desc>
<path d="M25625 40314
L25696 40338
L25815 40338
L25863 40314
L25887 40291
L25910 40243
L25910 40195
L25887 40148
L25863 40124
L25815 40100
L25720 40076
L25672 40052
L25649 40029
L25625 39981
L25625 39933
L25649 39886
L25672 39862
L25720 39838
L25839 39838
L25910 39862
" />
<path d="M26125 40338
L26125 40005
" />
<path d="M26125 40052
L26149 40029
L26196 40005
L26268 40005
L26315 40029
L26339 40076
L26339 40338
" />
<path d="M26339 40076
L26363 40029
L26410 40005
L26482 40005
L26530 40029
L26553 40076
L26553 40338
" />
<path d="M27006 40338
L27006 40076
L26982 40029
L26934 40005
L26839 40005
L26791 40029
" />
<path d="M27006 40314
L26958 40338
L26839 40338
L26791 40314
L26768 40267
L26768 40219
L26791 40171
L26839 40148
L26958 40148
L27006 40124
" />
<path d="M27244 40338
L27244 40005
" />
<path d="M27244 40100
L27268 40052
L27291 40029
L27339 40005
L27387 40005
" />
<path d="M27482 40005
L27672 40005
" />
<path d="M27553 39838
L27553 40267
L27577 40314
L27625 40338
L27672 40338
" />
<path d="M27839 40005
L27839 40505
" />
<path d="M27839 40029
L27887 40005
L27982 40005
L28030 40029
L28053 40052
L28077 40100
L28077 40243
L28053 40291
L28030 40314
L27982 40338
L27887 40338
L27839 40314
" />
<path d="M28291 40338
L28291 39838
" />
<path d="M28506 40338
L28506 40076
L28482 40029
L28434 40005
L28363 40005
L28315 40029
L28291 40052
" />
<path d="M28815 40338
L28768 40314
L28744 40291
L28720 40243
L28720 40100
L28744 40052
L28768 40029
L28815 40005
L28887 40005
L28934 40029
L28958 40052
L28982 40100
L28982 40243
L28958 40291
L28934 40314
L28887 40338
L28815 40338
" />
<path d="M29196 40005
L29196 40338
" />
<path d="M29196 40052
L29220 40029
L29268 40005
L29339 40005
L29387 40029
L29410 40076
L29410 40338
" />
<path d="M29839 40314
L29791 40338
L29696 40338
L29649 40314
L29625 40267
L29625 40076
L29649 40029
L29696 40005
L29791 40005
L29839 40029
L29863 40076
L29863 40124
L29625 40171
" />
<path d="M30530 40338
L30482 40314
L30458 40291
L30434 40243
L30434 40100
L30458 40052
L30482 40029
L30530 40005
L30601 40005
L30649 40029
L30672 40052
L30696 40100
L30696 40243
L30672 40291
L30649 40314
L30601 40338
L30530 40338
" />
<path d="M30910 40338
L30910 40005
" />
<path d="M30910 40100
L30934 40052
L30958 40029
L31006 40005
L31053 40005
" />
<path d="M31530 40005
L31720 40005
" />
<path d="M31601 39838
L31601 40267
L31625 40314
L31672 40338
L31720 40338
" />
<path d="M32101 40338
L32101 40076
L32077 40029
L32030 40005
L31934 40005
L31887 40029
" />
<path d="M32101 40314
L32053 40338
L31934 40338
L31887 40314
L31863 40267
L31863 40219
L31887 40171
L31934 40148
L32053 40148
L32101 40124
" />
<path d="M32339 40338
L32339 39838
" />
<path d="M32339 40029
L32387 40005
L32482 40005
L32530 40029
L32553 40052
L32577 40100
L32577 40243
L32553 40291
L32530 40314
L32482 40338
L32387 40338
L32339 40314
" />
<path d="M32863 40338
L32815 40314
L32791 40267
L32791 39838
" />
<path d="M33244 40314
L33196 40338
L33101 40338
L33053 40314
L33030 40267
L33030 40076
L33053 40029
L33101 40005
L33196 40005
L33244 40029
L33268 40076
L33268 40124
L33030 40171
" />
<path d="M33410 40005
L33601 40005
" />
<path d="M33482 39838
L33482 40267
L33506 40314
L33553 40338
L33601 40338
" />
</g></g>
<g style="fill:#0000C2; fill-opacity:0.0; 
stroke:#0000C2; stroke-width:62.519685; stroke-opacity:1; 
stroke-linecap:round; stroke-linejoin:round;">
</g>
<g style="fill:#0000C2; fill-opacity:0.0; 
stroke:#0000C2; stroke-width:60.000000; stroke-opacity:1; 
stroke-linecap:round; stroke-linejoin:round;">
<text x="15500.000000" y="51862.480315"
textLength="1321.889764" font-size="666.653543" lengthAdjust="spacingAndGlyphs"
text-anchor="end" opacity="0">Car</text>
<g class="stroked-text"><desc>Car</desc>
<path d="M14612 51791
L14589 51814
L14517 51838
L14470 51838
L14398 51814
L14350 51767
L14327 51719
L14303 51624
L14303 51552
L14327 51457
L14350 51410
L14398 51362
L14470 51338
L14517 51338
L14589 51362
L14612 51386
" />
<path d="M15041 51838
L15041 51576
L15017 51529
L14970 51505
L14874 51505
L14827 51529
" />
<path d="M15041 51814
L14993 51838
L14874 51838
L14827 51814
L14803 51767
L14803 51719
L14827 51671
L14874 51648
L14993 51648
L15041 51624
" />
<path d="M15279 51838
L15279 51505
" />
<path d="M15279 51600
L15303 51552
L15327 51529
L15374 51505
L15422 51505
" />
</g></g>
<g style="fill:#009600; fill-opacity:0.0; 
stroke:#009600; stroke-width:60.000000; stroke-opacity:1; 
stroke-linecap:round; stroke-linejoin:round;">
<path d="M30500 52500
L30500 54000
" />
<path d="M23500 46000
L20500 46000
" />
<path d="M31500 43500
L31500 46500
" />
<path d="M35500 44500
L18500 44500
" />
<path d="M32500 53000
L28500 53000
" />
<path d="M28500 53000
L28500 52500
" />
<path d="M18500 51500
L20500 51500
" />
<path d="M32500 52500
L32500 53000
" />
<path d="M34500 52500
L34500 54000
" />
<path d="M39500 53000
L36500 53000
" />
<path d="M27500 43500
L27500 46500
" />
<path d="M23500 46000
L23500 46500
" />
<path d="M20000 43500
L20000 46000
" />
<path d="M20500 46000
L20500 51500
" />
<path d="M20000 46000
L18500 46000
" />
<path d="M20000 46000
L20000 54000
" />
<path d="M26500 52500
L26500 54000
" />
<path d="M23500 53000
L18500 53000
" />
<path d="M23500 52500
L23500 53000
" />
<path d="M36500 52500
L36500 53000
" />
<path d="M35500 44500
L35500 46500
" />
<path d="M39500 43500
L39500 53000
" />
</g>
<g style="fill:#009600; fill-opacity:1.0; 
stroke:#009600; stroke-width:60.000000; stroke-opacity:1; 
stroke-linecap:round; stroke-linejoin:round;">
<circle cx="20000.000000" cy="46000.000000" r="180.000000" /> 
</g> 
</svg>
